<?xml version="1.0" encoding="UTF-8"?>
<svg version="1.1" xmlns="http://www.w3.org/2000/svg" width="500" height="500">
<path d="M0 0 C165 0 330 0 500 0 C500 165 500 330 500 500 C335 500 170 500 0 500 C0 335 0 170 0 0 Z " fill="#FEFEFE" transform="translate(0,0)"/>
<path d="M0 0 C4.80235079 3.33722682 7.82888017 7.35632278 9.57421875 12.94140625 C10.45256964 18.98006861 8.65737712 23.80611353 5.57421875 28.94140625 C1.47665777 32.94140625 1.47665777 32.94140625 -1.42578125 32.94140625 C-1.42578125 37.56140625 -1.42578125 42.18140625 -1.42578125 46.94140625 C6.81128298 44.41985598 10.32747911 38.61967674 14.69921875 31.51953125 C19.80248896 23.24278011 25.13916663 14.76296806 34.57421875 10.94140625 C39.63553663 10.20189681 44.75528304 10.7597533 49.76953125 11.6171875 C66.71290919 14.50713646 83.44277187 14.23395657 100.57421875 13.94140625 C99.71797472 20.57067207 98.43904952 24.3003577 93.57421875 28.94140625 C87.37326918 32.84107174 81.73131966 35.08288045 74.38671875 35.00390625 C72.75669922 34.99037109 72.75669922 34.99037109 71.09375 34.9765625 C70.26230469 34.96496094 69.43085938 34.95335937 68.57421875 34.94140625 C68.57421875 35.60140625 68.57421875 36.26140625 68.57421875 36.94140625 C69.33734375 37.18890625 70.10046875 37.43640625 70.88671875 37.69140625 C72.99409604 38.40577143 75.09565113 39.13948792 77.17578125 39.9296875 C82.34907326 41.88926781 87.05534429 43.45083963 92.57421875 43.94140625 C92.90421875 45.26140625 93.23421875 46.58140625 93.57421875 47.94140625 C86.8044855 54.47169556 80.65109876 58.13781641 71.07421875 58.31640625 C65.67082344 58.15132014 60.78374384 57.35415882 55.57421875 55.94140625 C59.92213128 61.93852698 65.51715824 65.76192842 71.57421875 69.94140625 C70.57421875 72.94140625 70.57421875 72.94140625 68.5703125 74.07421875 C63.16637986 76.16978958 58.36064026 77.51278243 52.57421875 77.94140625 C52.73148438 78.64136719 52.88875 79.34132813 53.05078125 80.0625 C54.87431272 90.09192309 53.9348788 99.16253709 48.57421875 107.94140625 C42.7453252 115.01848283 34.64792193 118.94823002 26.57421875 122.94140625 C27.15429688 123.34230469 27.734375 123.74320312 28.33203125 124.15625 C33.96576815 128.25604864 39.07748407 132.26474498 41.57421875 138.94140625 C42.61714493 145.93681588 43.32595044 153.53113334 39.01171875 159.56640625 C37.32421875 161.3515625 37.32421875 161.3515625 35.57421875 162.94140625 C34.83171875 163.71291016 34.83171875 163.71291016 34.07421875 164.5 C28.95471757 169.42751988 19.79033289 175.94140625 12.57421875 175.94140625 C13.15171875 176.64265625 13.72921875 177.34390625 14.32421875 178.06640625 C21.14905531 186.78703075 21.14905531 186.78703075 21.26171875 191.12890625 C20.23713776 196.81067354 18.78176066 202.73386434 14.57421875 206.94140625 C13.58421875 206.94140625 12.59421875 206.94140625 11.57421875 206.94140625 C11.53554688 206.05388672 11.53554688 206.05388672 11.49609375 205.1484375 C11.11174133 199.79370947 10.3648876 196.97663438 6.57421875 192.94140625 C6.57421875 192.28140625 6.57421875 191.62140625 6.57421875 190.94140625 C5.81109375 190.65265625 5.04796875 190.36390625 4.26171875 190.06640625 C1.57421875 188.94140625 1.57421875 188.94140625 -1.42578125 186.94140625 C-1.39959717 187.76342529 -1.37341309 188.58544434 -1.34643555 189.43237305 C-1.24236685 193.16435563 -1.17741997 196.89603285 -1.11328125 200.62890625 C-1.07138672 201.92248047 -1.02949219 203.21605469 -0.98632812 204.54882812 C-0.97021484 205.79599609 -0.95410156 207.04316406 -0.9375 208.328125 C-0.91131592 209.47498779 -0.88513184 210.62185059 -0.8581543 211.8034668 C-1.60170128 215.91392245 -3.20736402 217.37027506 -6.42578125 219.94140625 C-9.48828125 220.56640625 -9.48828125 220.56640625 -12.42578125 219.94140625 C-15.15267469 217.25675438 -16.3272339 215.62238963 -16.87988281 211.8034668 C-16.85893555 210.656604 -16.83798828 209.50974121 -16.81640625 208.328125 C-16.80351563 207.08095703 -16.790625 205.83378906 -16.77734375 204.54882812 C-16.74382812 203.25525391 -16.7103125 201.96167969 -16.67578125 200.62890625 C-16.65773438 199.31599609 -16.6396875 198.00308594 -16.62109375 196.65039062 C-16.57400911 193.41332137 -16.50825167 190.17773572 -16.42578125 186.94140625 C-23.46538776 191.40795581 -23.46538776 191.40795581 -28.42578125 197.94140625 C-28.65045956 199.4780949 -28.8337493 201.02108679 -28.98828125 202.56640625 C-29.11396484 203.79230469 -29.11396484 203.79230469 -29.2421875 205.04296875 C-29.30277344 205.66945313 -29.36335938 206.2959375 -29.42578125 206.94140625 C-31.2890625 206.6484375 -31.2890625 206.6484375 -33.42578125 205.94140625 C-37.46314128 199.82768964 -39.48162899 194.4191224 -38.42578125 186.94140625 C-36.67578125 183.75390625 -36.67578125 183.75390625 -34.42578125 180.94140625 C-33.68328125 179.99265625 -32.94078125 179.04390625 -32.17578125 178.06640625 C-31.59828125 177.36515625 -31.02078125 176.66390625 -30.42578125 175.94140625 C-31.50279297 175.77125 -31.50279297 175.77125 -32.6015625 175.59765625 C-41.84616024 173.44953395 -50.20324197 166.90693529 -56.42578125 159.94140625 C-59.67845153 154.0208154 -61.43333507 148.77168391 -60.42578125 141.94140625 C-57.71688345 133.85268805 -52.74997784 127.75628584 -45.1796875 123.75390625 C-44.60089844 123.48578125 -44.02210937 123.21765625 -43.42578125 122.94140625 C-44.49957031 122.44511719 -45.57335937 121.94882813 -46.6796875 121.4375 C-57.33022372 116.39645441 -65.88404385 111.75668646 -70.48828125 100.296875 C-71.57371591 96.41192346 -71.68369121 92.81124517 -71.61328125 88.81640625 C-71.61263672 88.11386719 -71.61199219 87.41132813 -71.61132812 86.6875 C-71.58256304 83.30600489 -71.47249873 80.17366984 -70.42578125 76.94140625 C-71.56015625 77.00328125 -72.69453125 77.06515625 -73.86328125 77.12890625 C-79.96115492 77.13975656 -85.37763005 75.30684038 -90.42578125 71.94140625 C-89.29644525 68.55339826 -88.62462893 68.1077802 -85.80078125 66.12890625 C-81.81380289 63.25741823 -78.12297869 60.17645401 -74.42578125 56.94140625 C-77.47848588 56.78329237 -77.47848588 56.78329237 -80.42578125 57.94140625 C-92.58050197 58.97612924 -101.07487303 58.0366867 -110.78125 49.98828125 C-111.32394531 49.3128125 -111.86664063 48.63734375 -112.42578125 47.94140625 C-112.17578125 45.69140625 -112.17578125 45.69140625 -111.42578125 43.94140625 C-110.69875 43.78285156 -109.97171875 43.62429687 -109.22265625 43.4609375 C-101.57743765 41.68685472 -94.58139811 39.15128403 -87.42578125 35.94140625 C-89.0190625 35.79445313 -89.0190625 35.79445313 -90.64453125 35.64453125 C-108.0709309 33.87469473 -108.0709309 33.87469473 -114.80078125 26.50390625 C-118.23852715 22.12264857 -119.74778629 18.57649439 -119.42578125 12.94140625 C-118.53375 13.10125 -117.64171875 13.26109375 -116.72265625 13.42578125 C-101.46241021 15.58395045 -85.55451876 14.35305014 -70.47265625 11.625 C-62.90513472 10.27568325 -55.15093553 9.40145268 -48.34838867 13.59082031 C-41.45898988 18.43045893 -37.14482694 25.05684143 -32.80078125 32.12890625 C-28.20768641 40.03319407 -28.20768641 40.03319407 -21.42578125 45.94140625 C-19.77578125 46.27140625 -18.12578125 46.60140625 -16.42578125 46.94140625 C-16.42578125 42.32140625 -16.42578125 37.70140625 -16.42578125 32.94140625 C-18.40578125 32.44640625 -18.40578125 32.44640625 -20.42578125 31.94140625 C-22.09375 30.19921875 -22.09375 30.19921875 -23.61328125 28.06640625 C-24.12246094 27.36773437 -24.63164063 26.6690625 -25.15625 25.94921875 C-27.93594011 21.55303193 -28.15157092 16.98115924 -27.42578125 11.94140625 C-25.26475846 6.83027351 -22.07542939 3.00038529 -17.42578125 -0.05859375 C-11.88379759 -1.90592164 -5.43773163 -2.37298756 0 0 Z " fill="#68C8FE" transform="translate(129.42578125,133.05859375)"/>
<path d="M0 0 C2.01616244 1.5665147 2.7207046 2.89100995 3.62890625 5.265625 C4.25407877 11.51735024 3.43957451 16.16017167 -0.37109375 21.265625 C-5.54808442 25.98221136 -9.31364662 28.41904776 -16.37109375 28.265625 C-16.78292327 32.38392018 -16.69605156 34.69694884 -14.62109375 38.328125 C-6.15309771 47.40445409 11.139289 52.19996258 23.19140625 52.640625 C35.00469025 52.12700396 54.2756917 47.01661167 62.62890625 38.265625 C63.73502441 34.95746515 64.29904459 31.73253836 64.62890625 28.265625 C63.63890625 28.389375 62.64890625 28.513125 61.62890625 28.640625 C56.48175166 28.640625 53.20975377 25.69856795 49.62890625 22.265625 C45.53595253 17.36113736 44.26594445 12.76987609 44.34765625 6.48828125 C44.77634223 3.1004712 46.11829474 1.50481905 48.62890625 -0.734375 C53.59326486 -3.71299017 59.40178056 -3.33706401 64.9296875 -2.3046875 C73.35457419 0.05253468 79.39593151 5.71969482 83.6640625 13.25 C87.53505394 21.33676754 87.98141054 30.8490423 85.82421875 39.48828125 C81.15158838 52.23328341 71.17191348 57.55656424 59.62890625 63.265625 C60.20898438 63.66652344 60.7890625 64.06742187 61.38671875 64.48046875 C67.02045565 68.58026739 72.13217157 72.58896373 74.62890625 79.265625 C75.67183243 86.26103463 76.38063794 93.85535209 72.06640625 99.890625 C70.37890625 101.67578125 70.37890625 101.67578125 68.62890625 103.265625 C68.13390625 103.77996094 67.63890625 104.29429687 67.12890625 104.82421875 C62.00940507 109.75173863 52.84502039 116.265625 45.62890625 116.265625 C46.49515625 117.3175 46.49515625 117.3175 47.37890625 118.390625 C54.20374281 127.1112495 54.20374281 127.1112495 54.31640625 131.453125 C53.29182526 137.13489229 51.83644816 143.05808309 47.62890625 147.265625 C46.63890625 147.265625 45.64890625 147.265625 44.62890625 147.265625 C44.603125 146.67394531 44.57734375 146.08226562 44.55078125 145.47265625 C44.16642883 140.11792822 43.4195751 137.30085313 39.62890625 133.265625 C39.62890625 132.605625 39.62890625 131.945625 39.62890625 131.265625 C38.86578125 130.976875 38.10265625 130.688125 37.31640625 130.390625 C34.62890625 129.265625 34.62890625 129.265625 31.62890625 127.265625 C31.65509033 128.08764404 31.68127441 128.90966309 31.70825195 129.7565918 C31.81232065 133.48857438 31.87726753 137.2202516 31.94140625 140.953125 C31.98330078 142.24669922 32.02519531 143.54027344 32.06835938 144.87304688 C32.08447266 146.12021484 32.10058594 147.36738281 32.1171875 148.65234375 C32.14337158 149.79920654 32.16955566 150.94606934 32.1965332 152.12768555 C31.45298622 156.2381412 29.84732348 157.69449381 26.62890625 160.265625 C23.56640625 160.890625 23.56640625 160.890625 20.62890625 160.265625 C17.90201281 157.58097313 16.7274536 155.94660838 16.17480469 152.12768555 C16.19575195 150.98082275 16.21669922 149.83395996 16.23828125 148.65234375 C16.25117187 147.40517578 16.2640625 146.15800781 16.27734375 144.87304688 C16.31085938 143.57947266 16.344375 142.28589844 16.37890625 140.953125 C16.39695313 139.64021484 16.415 138.32730469 16.43359375 136.97460938 C16.48067839 133.73754012 16.54643583 130.50195447 16.62890625 127.265625 C9.58929974 131.73217456 9.58929974 131.73217456 4.62890625 138.265625 C4.40422794 139.80231365 4.2209382 141.34530554 4.06640625 142.890625 C3.98261719 143.70789063 3.89882812 144.52515625 3.8125 145.3671875 C3.75191406 145.99367188 3.69132812 146.62015625 3.62890625 147.265625 C1.765625 146.97265625 1.765625 146.97265625 -0.37109375 146.265625 C-4.40845378 140.15190839 -6.42694149 134.74334115 -5.37109375 127.265625 C-3.62109375 124.078125 -3.62109375 124.078125 -1.37109375 121.265625 C-0.62859375 120.316875 0.11390625 119.368125 0.87890625 118.390625 C1.45640625 117.689375 2.03390625 116.988125 2.62890625 116.265625 C1.55189453 116.09546875 1.55189453 116.09546875 0.453125 115.921875 C-8.79147274 113.7737527 -17.14855447 107.23115404 -23.37109375 100.265625 C-26.62376403 94.34503415 -28.37864757 89.09590266 -27.37109375 82.265625 C-24.66219595 74.1769068 -19.69529034 68.08050459 -12.125 64.078125 C-11.25681641 63.6759375 -11.25681641 63.6759375 -10.37109375 63.265625 C-11.44488281 62.76933594 -12.51867187 62.27304688 -13.625 61.76171875 C-24.24482553 56.73520896 -32.92046189 52.08533702 -37.41796875 40.58984375 C-40.20960019 30.85345705 -39.16542024 20.77870238 -34.78125 11.75390625 C-30.75695298 4.65286136 -25.27204794 0.07601483 -17.359375 -2.3515625 C-10.92537062 -3.59032955 -5.8320446 -2.96904089 0 0 Z " fill="#3C62E6" transform="translate(96.37109375,192.734375)"/>
<path d="M0 0 C5.99551434 2.09286574 11.89024499 3.67384427 18.125 4.875 C25.04179875 6.24669783 31.80185932 7.93031686 38.5625 9.9375 C39.37557617 10.17460693 40.18865234 10.41171387 41.02636719 10.65600586 C53.79872053 14.54663273 53.79872053 14.54663273 57.9375 19.3125 C59.15236849 22.71413178 58.95029331 24.49656139 57.875 27.9375 C55.10108557 32.01528205 52.50282612 33.97628773 48.0625 36.0625 C46.99644531 36.56523437 45.93039063 37.06796875 44.83203125 37.5859375 C43.85621094 38.03195312 42.88039063 38.47796875 41.875 38.9375 C41.21886719 39.25976562 40.56273437 39.58203125 39.88671875 39.9140625 C36.73146906 41.40508741 33.78661808 42.15058961 30.375 42.6875 C25.50392768 43.55948208 21.32477541 45.34861307 16.875 47.4375 C16.21564453 47.74655273 15.55628906 48.05560547 14.87695312 48.37402344 C12.17306516 49.68094951 10.01321794 50.79928206 7.875 52.9375 C10.39069008 53.81029044 12.91064406 54.66068309 15.4375 55.5 C16.49420898 55.8702832 16.49420898 55.8702832 17.57226562 56.24804688 C25.34936623 58.79262818 31.5840316 56.84697335 39.2265625 54.55859375 C41.87604636 53.93725461 44.16496631 53.82498958 46.875 53.9375 C47.37 52.9475 47.37 52.9475 47.875 51.9375 C56.43822685 62.33570403 56.43822685 62.33570403 56.5625 67.125 C55.53791901 72.80676729 54.08254191 78.72995809 49.875 82.9375 C48.885 82.9375 47.895 82.9375 46.875 82.9375 C46.84921875 82.34582031 46.8234375 81.75414062 46.796875 81.14453125 C46.41252258 75.78980322 45.66566885 72.97272813 41.875 68.9375 C41.875 68.2775 41.875 67.6175 41.875 66.9375 C41.111875 66.64875 40.34875 66.36 39.5625 66.0625 C36.875 64.9375 36.875 64.9375 33.875 62.9375 C33.90118408 63.75951904 33.92736816 64.58153809 33.9543457 65.4284668 C34.0584144 69.16044938 34.12336128 72.8921266 34.1875 76.625 C34.22939453 77.91857422 34.27128906 79.21214844 34.31445312 80.54492188 C34.33056641 81.79208984 34.34667969 83.03925781 34.36328125 84.32421875 C34.38946533 85.47108154 34.41564941 86.61794434 34.44262695 87.79956055 C33.69907997 91.9100162 32.09341723 93.36636881 28.875 95.9375 C25.8125 96.5625 25.8125 96.5625 22.875 95.9375 C20.14810656 93.25284813 18.97354735 91.61848338 18.42089844 87.79956055 C18.4418457 86.65269775 18.46279297 85.50583496 18.484375 84.32421875 C18.49726562 83.07705078 18.51015625 81.82988281 18.5234375 80.54492188 C18.55695313 79.25134766 18.59046875 77.95777344 18.625 76.625 C18.64304688 75.31208984 18.66109375 73.99917969 18.6796875 72.64648438 C18.72677214 69.40941512 18.79252958 66.17382947 18.875 62.9375 C11.83539349 67.40404956 11.83539349 67.40404956 6.875 73.9375 C6.65032169 75.47418865 6.46703195 77.01718054 6.3125 78.5625 C6.22871094 79.37976563 6.14492187 80.19703125 6.05859375 81.0390625 C5.96771484 81.97878906 5.96771484 81.97878906 5.875 82.9375 C4.01171875 82.64453125 4.01171875 82.64453125 1.875 81.9375 C-2.16236003 75.82378339 -4.18084774 70.41521615 -3.125 62.9375 C-1.375 59.75 -1.375 59.75 0.875 56.9375 C1.6175 55.98875 2.36 55.04 3.125 54.0625 C3.7025 53.36125 4.28 52.66 4.875 51.9375 C4.15699219 51.8240625 3.43898438 51.710625 2.69921875 51.59375 C-6.54537899 49.4456277 -14.90246072 42.90302904 -21.125 35.9375 C-24.37767028 30.01690915 -26.13255382 24.76777766 -25.125 17.9375 C-22.63117237 10.49097731 -18.46328242 5.46312968 -12.125 0.9375 C-11.36445312 0.33679688 -10.60390625 -0.26390625 -9.8203125 -0.8828125 C-6.05946299 -2.52886547 -3.63349882 -1.3916969 0 0 Z " fill="#3C62E6" transform="translate(94.125,257.0625)"/>
<path d="M0 0 C0 1.65 0 3.3 0 5 C-0.66386719 5.24234375 -1.32773437 5.4846875 -2.01171875 5.734375 C-9.94239447 8.74455848 -14.47134365 11.61996743 -19 19 C-16.50516127 25.12369507 -11.79341434 28.49427561 -6.00390625 31.21875 C-3.37286138 32.24449849 -0.80316476 32.71968352 2 33 C2 34.98 2 36.96 2 39 C-5.14694277 39.66175396 -10.00929329 37.93535855 -16 34 C-18.01154611 32.20701967 -19.837759 30.37041113 -21.625 28.35546875 C-22.91558512 26.76598972 -22.91558512 26.76598972 -25 27 C-26.59848062 28.65737274 -26.59848062 28.65737274 -28.25 30.75 C-33.28124551 36.64582808 -38.61231379 40.43825073 -46.47265625 41.2578125 C-56.7867142 41.69300482 -64.02663181 38.44229769 -71.6015625 31.5859375 C-73 30 -73 30 -73 28 C-73.680625 28.70125 -74.36125 29.4025 -75.0625 30.125 C-82.8523323 37.84918764 -89.01504371 43.12214479 -100.375 43.625 C-111.50733506 43.30440644 -118.19725385 37.36683854 -126 30 C-126.26683594 30.5878125 -126.53367187 31.175625 -126.80859375 31.78125 C-130.48159218 38.62145691 -136.70604281 42.7504618 -144 45 C-147.0625 45.25 -147.0625 45.25 -149 45 C-149 43.02 -149 41.04 -149 39 C-148.29875 38.81566406 -147.5975 38.63132813 -146.875 38.44140625 C-139.02306039 36.0410171 -134.87674027 32.53958294 -130 26 C-131.87217958 20.74006688 -134.19692157 17.85721588 -139 15 C-142.94743242 13.67926106 -146.91123233 12.76538508 -151 12 C-151 10.02 -151 8.04 -151 6 C-144.08155593 5.56759725 -138.78651038 6.72905542 -133.33984375 11.16796875 C-131.57198635 12.76794329 -129.82449494 14.39080824 -128.1015625 16.0390625 C-126.15599968 18.04000812 -126.15599968 18.04000812 -124 19 C-123.773125 18.443125 -123.54625 17.88625 -123.3125 17.3125 C-119.93525036 11.36210777 -113.50063685 6.16687895 -107 4 C-96.57001911 3.10767344 -88.12836822 4.34635043 -79.9375 11.125 C-78.14573939 12.75234023 -77.08633502 13.82732995 -76 16 C-75.34 16 -74.68 16 -74 16 C-72.9103488 14.8131637 -71.87751435 13.57380294 -70.875 12.3125 C-66.4572019 7.08893998 -60.64593716 2.33648252 -53.65625 1.69140625 C-44.50049341 1.30293313 -38.35484447 2.00816341 -31 8 C-30.28714844 8.57234375 -29.57429688 9.1446875 -28.83984375 9.734375 C-27.18917344 11.1126683 -25.58807093 12.5500222 -24 14 C-23.52691406 13.40832031 -23.05382812 12.81664062 -22.56640625 12.20703125 C-16.34647209 4.77463429 -10.16965144 -1.08187781 0 0 Z " fill="#5C73EA" transform="translate(423,141)"/>
<path d="M0 0 C0.99 0 1.98 0 3 0 C2.67 8.25 2.34 16.5 2 25 C3.65 25 5.3 25 7 25 C8.6171875 26.609375 8.6171875 26.609375 9.875 28.75 C10.30554688 29.44609375 10.73609375 30.1421875 11.1796875 30.859375 C12.21162795 33.55224818 12.08364898 34.33403171 11 37 C9.68 39.31 8.36 41.62 7 44 C19.375 43.505 19.375 43.505 32 43 C30.68 40.69 29.36 38.38 28 36 C28.0882907 31.58546503 29.33233967 28.49734303 32 25 C36.09466385 23.85092767 39.87427182 24.02956662 44 25 C46.79221156 27.25482164 48.08755892 29.54397317 49 33 C48.29682017 37.48277141 46.38763915 40.02060141 44 44 C48.95 43.67 53.9 43.34 59 43 C59 43.99 59 44.98 59 46 C54.05 46 49.1 46 44 46 C44.495 47.98 44.495 47.98 45 50 C44.34 49.67 43.68 49.34 43 49 C43 48.34 43 47.68 43 47 C39.7 47 36.4 47 33 47 C32.31974363 48.99541868 31.65509503 50.99617991 31 53 C30.731875 53.680625 30.46375 54.36125 30.1875 55.0625 C29.86800104 57.15038397 29.86800104 57.15038397 30.75 59.6875 C34.39176626 63.43042643 38.97725139 62.90619655 44 63 C44 63.66 44 64.32 44 65 C56.87 65 69.74 65 83 65 C82.505 66.485 82.505 66.485 82 68 C63.19 67.505 63.19 67.505 44 67 C45.65 69.97 47.3 72.94 49 76 C48.5 78.75 48.5 78.75 47 81 C46.60167969 81.86496094 46.20335937 82.72992188 45.79296875 83.62109375 C44 86 44 86 41.08203125 86.48828125 C40.00308594 86.43027344 38.92414063 86.37226563 37.8125 86.3125 C36.72582031 86.26738281 35.63914062 86.22226562 34.51953125 86.17578125 C33.68808594 86.11777344 32.85664063 86.05976563 32 86 C27.98176471 79.91176471 27.98176471 79.91176471 28.0625 75.875 C29.02766746 72.91515313 30.25913756 70.57344882 32 68 C31.34 68 30.68 68 30 68 C29.32103905 69.31677276 28.68170941 70.65409578 28.0625 72 C26.7734375 74.21875 26.7734375 74.21875 25 76 C21.25025477 76.71826106 17.77257906 76.47570174 14 76 C13.12808053 74.61518672 12.27809616 73.21654754 11.4375 71.8125 C10.96183594 71.03519531 10.48617187 70.25789063 9.99609375 69.45703125 C8.80394203 66.51639033 9.11144836 64.99553637 10 62 C9.34 62 8.68 62 8 62 C7.67 62.99 7.34 63.98 7 65 C5.27646768 65.21732807 3.5449463 65.37184017 1.8125 65.5 C0.84957031 65.5928125 -0.11335938 65.685625 -1.10546875 65.78125 C-2.06066406 65.5234375 -3.01585937 65.265625 -4 65 C-5.01098633 63.20117188 -5.01098633 63.20117188 -6.03125 61 C-7.16744837 58.73553922 -7.16744837 58.73553922 -9 57 C-13.45520843 55.96284933 -17.76865926 56.24579912 -22.3125 56.5 C-24.1387793 56.55414063 -24.1387793 56.55414063 -26.00195312 56.609375 C-29.00450252 56.70357263 -32.00064639 56.83497367 -35 57 C-35 56.01 -35 55.02 -35 54 C-26.42 54 -17.84 54 -9 54 C-7.68 51.36 -6.36 48.72 -5 46 C-6.65 47.32 -8.3 48.64 -10 50 C-9.34 47.69 -8.68 45.38 -8 43 C-7.01 43 -6.02 43 -5 43 C-5.66 41.948125 -6.32 40.89625 -7 39.8125 C-8.7771585 36.73376063 -9.43806506 34.61403672 -9 31 C-9.66 31 -10.32 31 -11 31 C-11 31.66 -11 32.32 -11 33 C-14.96 33 -18.92 33 -23 33 C-26.96373057 26.74611399 -26.96373057 26.74611399 -28 23 C-26.92022931 19.31258311 -25.29894615 17.16743691 -23 14 C-19.04 14 -15.08 14 -11 14 C-9 18 -7 22 -5 26 C-4.67 25.67 -4.34 25.34 -4 25 C-2.35 25 -0.7 25 1 25 C0.505 12.625 0.505 12.625 0 0 Z " fill="#EDF8FF" transform="translate(398,248)"/>
<path d="M0 0 C2.15410475 1.00838079 2.15410475 1.00838079 5.08984375 1.703125 C11.96556125 4.48267037 18.10586217 9.77860881 21.984375 16.1015625 C24.4282203 22.63678926 24.68623449 31.01987994 21.9140625 37.48828125 C20.43792332 39.55328458 18.9039469 41.18576455 17.02734375 42.890625 C16.53234375 43.40496094 16.03734375 43.91929687 15.52734375 44.44921875 C9.7739493 49.98686091 1.07857719 55.890625 -6.97265625 55.890625 C-6.97265625 56.550625 -6.97265625 57.210625 -6.97265625 57.890625 C-9.98742437 58.76724691 -13.01011308 59.61271139 -16.03515625 60.453125 C-17.30649414 60.8234082 -17.30649414 60.8234082 -18.60351562 61.20117188 C-26.46920384 63.35740301 -32.1654523 62.30323657 -39.91015625 59.828125 C-41.05355469 59.46589844 -42.19695312 59.10367188 -43.375 58.73046875 C-44.66083984 58.31474609 -44.66083984 58.31474609 -45.97265625 57.890625 C-45.97265625 56.900625 -45.97265625 55.910625 -45.97265625 54.890625 C-43.43241977 53.76230143 -40.89056787 52.63789072 -38.34765625 51.515625 C-37.63480469 51.19851563 -36.92195313 50.88140625 -36.1875 50.5546875 C-32.16684564 48.78412411 -28.17142551 47.20423995 -23.97265625 45.890625 C-8.6422267 41.61022638 -8.6422267 41.61022638 3.40234375 32.015625 C4.54761791 28.12169286 3.27584846 24.63613912 2.02734375 20.890625 C-0.21780563 19.75796601 -0.21780563 19.75796601 -2.97265625 18.890625 C-3.90335938 18.53484375 -4.8340625 18.1790625 -5.79296875 17.8125 C-15.39476691 14.40760704 -25.13810766 12.20946571 -35.08984375 10.06054688 C-53.1730322 6.14489583 -53.1730322 6.14489583 -58.97265625 3.890625 C-59.30265625 3.230625 -59.63265625 2.570625 -59.97265625 1.890625 C-39.49662681 -6.46491604 -20.79612097 -9.27347824 0 0 Z " fill="#3C61E5" transform="translate(147.97265625,253.109375)"/>
<path d="M0 0 C1.2375 -0.01675781 2.475 -0.03351563 3.75 -0.05078125 C7 0.3125 7 0.3125 8.95703125 1.6640625 C10 3.3125 10 3.3125 9.6875 6 C9.460625 6.763125 9.23375 7.52625 9 8.3125 C6.6875 9 6.6875 9 4 9.3125 C2.1875 8 2.1875 8 1 6.3125 C1 5.6525 1 4.9925 1 4.3125 C-3.60742865 5.52294132 -3.60742865 5.52294132 -8 7.3125 C-9.18769234 10.87557702 -9.12956485 13.74015324 -9.1328125 17.5 C-9.13376923 18.19891357 -9.13472595 18.89782715 -9.13571167 19.61791992 C-9.13639141 21.09391368 -9.13455145 22.56991045 -9.13037109 24.04589844 C-9.12501989 26.30410481 -9.13032298 28.5621123 -9.13671875 30.8203125 C-9.13605793 32.25520877 -9.13477669 33.69010492 -9.1328125 35.125 C-9.13112061 37.08373047 -9.13112061 37.08373047 -9.12939453 39.08203125 C-9.14930356 42.32793247 -9.14930356 42.32793247 -8 45.3125 C1.05145376 46.60556482 7.39590237 42.51167874 15.10546875 38.32568359 C18.43933758 36.54275116 21.86629352 34.94896085 25.27734375 33.3203125 C27.17291464 32.42182712 27.17291464 32.42182712 28 30.3125 C28.06950541 28.77226004 28.08452357 27.22915012 28.0625 25.6875 C28.05347656 24.87023437 28.04445313 24.05296875 28.03515625 23.2109375 C28.02355469 22.58445312 28.01195312 21.95796875 28 21.3125 C25.69 20.9825 23.38 20.6525 21 20.3125 C21 18.3325 21 16.3525 21 14.3125 C23.97 13.8175 23.97 13.8175 27 13.3125 C34.48218527 22.62705718 34.48218527 22.62705718 34.75 27.5625 C33.87902495 31.91737523 32.17570336 34.34505582 29 37.3125 C26.58862742 38.90544655 24.06375516 40.11486739 21.4375 41.3125 C20.00879576 41.98891034 18.58041307 42.66600022 17.15234375 43.34375 C16.09829346 43.83681641 16.09829346 43.83681641 15.02294922 44.33984375 C12.12863148 45.73146357 9.32523862 47.28651124 6.5 48.8125 C2.8804753 50.67858784 0.72190746 51.57854791 -3.3125 51 C-5.1378125 51.1546875 -5.1378125 51.1546875 -7 51.3125 C-9.06416696 53.86639171 -10.60148306 56.55420986 -12.21875 59.41015625 C-16.14017424 65.79966987 -21.8645508 70.14638149 -29 72.3125 C-35.17309366 73.29235614 -38.95730176 71.90057375 -44 68.3125 C-49.15089581 62.74396399 -50.61572053 58.26965122 -50.5234375 50.7578125 C-49.31127105 42.77922439 -44.80745374 35.66520672 -40 29.3125 C-39.29485154 27.16516073 -39.29485154 27.16516073 -39 25.3125 C-39.66 25.3125 -40.32 25.3125 -41 25.3125 C-42.55718892 18.48482549 -42.55718892 18.48482549 -41.0234375 15.2578125 C-37.79742765 10.71121383 -37.79742765 10.71121383 -35 9.3125 C-30.80508432 8.90914272 -28.4749991 9.07051933 -24.6875 11 C-21.80607674 13.4793642 -20.77222253 14.62299236 -20 18.3125 C-20.07508569 22.51729865 -20.58970843 24.72270587 -23 28.1875 C-26.20449309 30.45734927 -26.71344402 30.46249356 -30.375 30.4375 C-32.74498197 30.45185378 -32.74498197 30.45185378 -35 31.3125 C-41.34886188 38.44146778 -44.43563443 46.22387505 -44.2578125 55.6484375 C-43.92367375 59.10120459 -42.97038597 61.46638693 -41 64.3125 C-36.7624089 67.13756073 -32.97804641 66.86119841 -28 66.3125 C-25.0745356 64.9615712 -25.0745356 64.9615712 -23 63.3125 C-22.34 63.3125 -21.68 63.3125 -21 63.3125 C-21 62.6525 -21 61.9925 -21 61.3125 C-19.66666667 59.97916667 -18.33333333 58.64583333 -17 57.3125 C-15.86554187 55.595201 -14.78122359 53.84370438 -13.75 52.0625 C-13.22921875 51.17046875 -12.7084375 50.2784375 -12.171875 49.359375 C-11.78515625 48.68390625 -11.3984375 48.0084375 -11 47.3125 C-11.99 46.8175 -11.99 46.8175 -13 46.3125 C-14.20573315 42.69530056 -14.20021033 39.3430845 -14.23828125 35.57421875 C-14.246353 34.81583206 -14.25442474 34.05744537 -14.26274109 33.27607727 C-14.27656182 31.6714607 -14.28729296 30.06681498 -14.29516602 28.4621582 C-14.30668481 26.82600252 -14.32713529 25.18988438 -14.35668945 23.55395508 C-14.39947503 21.18545081 -14.41554944 18.81806205 -14.42578125 16.44921875 C-14.44328934 15.72401535 -14.46079742 14.99881195 -14.47883606 14.25163269 C-14.4571131 9.12385441 -13.24769689 6.24488816 -10 2.3125 C-6.33236683 -0.13258878 -4.36568225 0.01364276 0 0 Z " fill="#5879D9" transform="translate(263,260.6875)"/>
<path d="M0 0 C0.33 0.66 0.66 1.32 1 2 C2.58731149 2.2415474 4.17731561 2.47046857 5.7734375 2.64453125 C8.43922521 3.07012192 10.91816497 3.8390695 13.5 4.625 C21.09332396 6.72967132 26.98592368 4.8265644 34.3515625 2.62109375 C37.00104636 1.99975461 39.28996631 1.88748958 42 2 C42.33 1.34 42.66 0.68 43 0 C51.56322685 10.39820403 51.56322685 10.39820403 51.6875 15.1875 C50.66291901 20.86926729 49.20754191 26.79245809 45 31 C44.01 31 43.02 31 42 31 C41.97421875 30.40832031 41.9484375 29.81664062 41.921875 29.20703125 C41.53752258 23.85230322 40.79066885 21.03522813 37 17 C37 16.34 37 15.68 37 15 C36.236875 14.71125 35.47375 14.4225 34.6875 14.125 C32 13 32 13 29 11 C29.02618408 11.82201904 29.05236816 12.64403809 29.0793457 13.4909668 C29.1834144 17.22294938 29.24836128 20.9546266 29.3125 24.6875 C29.35439453 25.98107422 29.39628906 27.27464844 29.43945312 28.60742188 C29.45556641 29.85458984 29.47167969 31.10175781 29.48828125 32.38671875 C29.51446533 33.53358154 29.54064941 34.68044434 29.56762695 35.86206055 C28.82407997 39.9725162 27.21841723 41.42886881 24 44 C20.9375 44.625 20.9375 44.625 18 44 C15.27310656 41.31534813 14.09854735 39.68098338 13.54589844 35.86206055 C13.5668457 34.71519775 13.58779297 33.56833496 13.609375 32.38671875 C13.62871094 30.5159668 13.62871094 30.5159668 13.6484375 28.60742188 C13.68195313 27.31384766 13.71546875 26.02027344 13.75 24.6875 C13.76804687 23.37458984 13.78609375 22.06167969 13.8046875 20.70898438 C13.85177214 17.47191512 13.91752958 14.23632947 14 11 C6.96039349 15.46654956 6.96039349 15.46654956 2 22 C1.77532169 23.53668865 1.59203195 25.07968054 1.4375 26.625 C1.35371094 27.44226563 1.26992187 28.25953125 1.18359375 29.1015625 C1.12300781 29.72804688 1.06242187 30.35453125 1 31 C-0.86328125 30.70703125 -0.86328125 30.70703125 -3 30 C-7.03736003 23.88628339 -9.05584774 18.47771615 -8 11 C-6.25 7.8125 -6.25 7.8125 -4 5 C-3.2575 4.05125 -2.515 3.1025 -1.75 2.125 C-1.1725 1.42375 -0.595 0.7225 0 0 Z " fill="#3E63E6" transform="translate(99,309)"/>
<path d="M0 0 C0 13.86 0 27.72 0 42 C-26.00776119 35.99820896 -26.00776119 35.99820896 -33 27 C-34.61052632 21.22105263 -34.61052632 21.22105263 -33 18 C-31.80375 17.731875 -30.6075 17.46375 -29.375 17.1875 C-24.80650155 16.13764757 -21.40832491 14.22308986 -18 11 C-17.566875 10.154375 -17.13375 9.30875 -16.6875 8.4375 C-14.2808331 4.96120337 -11.28304356 4.26118339 -7.375 2.89453125 C-4.66667142 1.87445354 -2.92253352 0 0 0 Z " fill="#FCFDFE" transform="translate(113,203)"/>
<path d="M0 0 C2.97 1.65 5.94 3.3 9 5 C10.6396875 5.2165625 10.6396875 5.2165625 12.3125 5.4375 C15 6 15 6 16.9375 8.75 C17.9584375 10.35875 17.9584375 10.35875 19 12 C23.32412022 16.09596312 27.10089383 17.63883023 33 18 C33.49092804 25.24118852 33.49092804 25.24118852 31.33203125 28.578125 C25.18739097 34.95949346 14.50396784 38.80292624 6 41 C4.02 41 2.04 41 0 41 C0 27.47 0 13.94 0 0 Z " fill="#FDFDFE" transform="translate(128,203)"/>
<path d="M0 0 C7.98476272 0.16295434 7.98476272 0.16295434 11.0234375 2.69921875 C12.47971742 4.81122693 13.38754968 6.58922315 14.0625 9.0625 C13.5625 11.6875 13.5625 11.6875 12.0625 14.0625 C11.52625 15.155625 10.99 16.24875 10.4375 17.375 C9.98375 18.261875 9.53 19.14875 9.0625 20.0625 C11.43163861 17.85675026 12.94414305 16.36883563 14.125 13.3125 C16.0625 11.0625 16.0625 11.0625 18.51953125 10.46484375 C21.61702941 10.23678164 24.04993529 10.2895971 27.0625 11.0625 C29.70347289 13.36091992 30.99154711 15.75059367 32.0625 19.0625 C32.125 21.6875 32.125 21.6875 31.0625 24.0625 C30.60875 25.155625 30.155 26.24875 29.6875 27.375 C26.14998408 30.99674249 23.70732923 30.85061561 18.81640625 31.0546875 C17.90761719 30.72726562 16.99882812 30.39984375 16.0625 30.0625 C15.47944781 28.73235103 14.92604721 27.38908813 14.390625 26.0390625 C13.25239097 23.7198405 13.25239097 23.7198405 11.0625 22.0625 C4.785537 20.99443558 -1.40874016 21.31264458 -7.75 21.5625 C-9.50968541 21.60264368 -11.269458 21.63914295 -13.02929688 21.671875 C-17.33418427 21.75988886 -21.63489049 21.89783106 -25.9375 22.0625 C-25.9375 21.0725 -25.9375 20.0825 -25.9375 19.0625 C-18.3475 19.0625 -10.7575 19.0625 -2.9375 19.0625 C-4.9175 15.5975 -4.9175 15.5975 -6.9375 12.0625 C-24.0975 12.0625 -41.2575 12.0625 -58.9375 12.0625 C-58.9375 10.7425 -58.9375 9.4225 -58.9375 8.0625 C-57.9475 8.3925 -56.9575 8.7225 -55.9375 9.0625 C-54.38469447 9.18826819 -52.82736878 9.26191816 -51.27001953 9.30297852 C-50.32538849 9.32872452 -49.38075745 9.35447052 -48.40750122 9.3809967 C-44.09781472 9.46532786 -39.78829139 9.5309686 -35.47802734 9.57739258 C-33.20430717 9.60908489 -30.93075353 9.65689276 -28.65771484 9.72094727 C-25.37794946 9.81209152 -22.10115206 9.85098 -18.8203125 9.87890625 C-17.80558868 9.91705948 -16.79086487 9.95521271 -15.74539185 9.99452209 C-12.92125788 9.98673086 -10.63306208 9.91182774 -7.9375 9.0625 C-6.11398106 7.11082955 -5.04732109 5.30968592 -3.93551636 2.88755798 C-2.9375 1.0625 -2.9375 1.0625 0 0 Z " fill="#EDF8FF" transform="translate(340.9375,303.9375)"/>
<path d="M0 0 C1.85818359 0.25523437 1.85818359 0.25523437 3.75390625 0.515625 C12.67882166 1.90430125 20.69565087 4.4023967 29 8 C26.16322736 10.83677264 22.76517233 11.43428658 19 12.5 C18.23123535 12.72067139 17.4624707 12.94134277 16.67041016 13.16870117 C3.29242698 16.95053786 -6.12891894 17.49310506 -19.6875 14.125 C-20.81478516 13.85558594 -21.94207031 13.58617187 -23.10351562 13.30859375 C-32.1905267 11.09224959 -32.1905267 11.09224959 -36 9 C-27.28523361 1.87786804 -11.01007622 -1.57963791 0 0 Z " fill="#1A2EAE" transform="translate(124,247)"/>
<path d="M0 0 C1.61841797 0.08701172 1.61841797 0.08701172 3.26953125 0.17578125 C4.35621094 0.22089844 5.44289063 0.26601563 6.5625 0.3125 C7.39394531 0.37050781 8.22539062 0.42851562 9.08203125 0.48828125 C10.73203125 3.78828125 12.38203125 7.08828125 14.08203125 10.48828125 C18.37203125 10.48828125 22.66203125 10.48828125 27.08203125 10.48828125 C32.22632655 18.69465709 32.22632655 18.69465709 31.58203125 22.23828125 C31.08703125 22.98078125 30.59203125 23.72328125 30.08203125 24.48828125 C29.77265625 25.41640625 29.46328125 26.34453125 29.14453125 27.30078125 C26.5722973 30.02890816 25.3862968 30.02421901 21.70703125 30.30078125 C18.4445382 30.15799309 16.72122226 30.03252966 14.21484375 27.8984375 C11.84313083 24.40786566 11.04135012 22.24766228 11.26953125 17.98828125 C11.53765625 17.16328125 11.80578125 16.33828125 12.08203125 15.48828125 C11.52515625 16.14828125 10.96828125 16.80828125 10.39453125 17.48828125 C7.62981596 19.87938636 6.60380706 19.67517483 3.08203125 19.48828125 C3.11232422 20.1337793 3.14261719 20.77927734 3.17382812 21.44433594 C3.31085267 24.37560722 3.44645684 27.30694255 3.58203125 30.23828125 C3.62972656 31.2540625 3.67742187 32.26984375 3.7265625 33.31640625 C3.77167969 34.29609375 3.81679688 35.27578125 3.86328125 36.28515625 C3.92612305 37.63625488 3.92612305 37.63625488 3.99023438 39.01464844 C4.07026649 41.17125849 4.08203125 43.33018671 4.08203125 45.48828125 C3.09203125 45.15828125 2.10203125 44.82828125 1.08203125 44.48828125 C1.41203125 36.23828125 1.74203125 27.98828125 2.08203125 19.48828125 C0.43203125 19.48828125 -1.21796875 19.48828125 -2.91796875 19.48828125 C-8.10243014 11.5028189 -8.10243014 11.5028189 -7.41796875 7.73828125 C-6.92296875 6.99578125 -6.42796875 6.25328125 -5.91796875 5.48828125 C-5.51964844 4.62332031 -5.12132812 3.75835937 -4.7109375 2.8671875 C-2.91796875 0.48828125 -2.91796875 0.48828125 0 0 Z " fill="#DFF3FF" transform="translate(377.91796875,304.51171875)"/>
<path d="M0 0 C0 10.23 0 20.46 0 31 C-5.08307384 30.15282103 -8.66293863 28.97610567 -13.125 26.6875 C-13.73214844 26.39166016 -14.33929688 26.09582031 -14.96484375 25.79101562 C-19.15793271 23.6762006 -23.01179685 21.58888639 -24.75 17.03515625 C-25.20797977 13.42140965 -25.2895207 11.55386569 -23.5625 8.25 C-16.82832865 2.33706906 -8.88339941 0 0 0 Z " fill="#FCFCFE" transform="translate(113,267)"/>
<path d="M0 0 C8.29178426 1.03647303 15.39612026 2.2610514 22.125 7.375 C24.34357823 10.48100953 25.07809362 12.17341279 25 16 C21.43230045 23.60075123 14.6271428 26.51025793 7.125 29.3125 C2.33596838 31 2.33596838 31 0 31 C0 20.77 0 10.54 0 0 Z " fill="#FCFCFE" transform="translate(128,267)"/>
<path d="M0 0 C8.16618043 -0.11200497 8.16618043 -0.11200497 11.2265625 2.359375 C13.58535969 5.77307872 14.40826429 7.81040106 13.7578125 11.95703125 C12.34356496 14.6087454 10.80401426 17.19252831 9.2578125 19.76953125 C14.2078125 19.43953125 19.1578125 19.10953125 24.2578125 18.76953125 C24.2578125 19.75953125 24.2578125 20.74953125 24.2578125 21.76953125 C19.3078125 21.76953125 14.3578125 21.76953125 9.2578125 21.76953125 C9.7528125 23.74953125 9.7528125 23.74953125 10.2578125 25.76953125 C9.5978125 25.43953125 8.9378125 25.10953125 8.2578125 24.76953125 C8.2578125 24.10953125 8.2578125 23.44953125 8.2578125 22.76953125 C4.9578125 22.76953125 1.6578125 22.76953125 -1.7421875 22.76953125 C-2.1753125 24.22359375 -2.1753125 24.22359375 -2.6171875 25.70703125 C-3.7421875 28.76953125 -3.7421875 28.76953125 -5.7421875 29.76953125 C-3.8671875 24.01953125 -3.8671875 24.01953125 -2.7421875 21.76953125 C-10.6621875 22.09953125 -18.5821875 22.42953125 -26.7421875 22.76953125 C-26.0821875 24.74953125 -25.4221875 26.72953125 -24.7421875 28.76953125 C-26.45059031 27.13540682 -27.67671797 25.90047031 -28.7421875 23.76953125 C-30.20041962 23.74252695 -31.65879425 23.72313338 -33.1171875 23.70703125 C-34.33535156 23.68962891 -34.33535156 23.68962891 -35.578125 23.671875 C-37.79155892 23.62486791 -37.79155892 23.62486791 -39.7421875 24.76953125 C-39.7421875 23.77953125 -39.7421875 22.78953125 -39.7421875 21.76953125 C-41.3921875 23.08953125 -43.0421875 24.40953125 -44.7421875 25.76953125 C-43.7521875 22.30453125 -43.7521875 22.30453125 -42.7421875 18.76953125 C-41.7521875 18.76953125 -40.7621875 18.76953125 -39.7421875 18.76953125 C-40.0721875 17.44953125 -40.4021875 16.12953125 -40.7421875 14.76953125 C-40.0821875 15.09953125 -39.4221875 15.42953125 -38.7421875 15.76953125 C-38.7421875 16.42953125 -38.7421875 17.08953125 -38.7421875 17.76953125 C-32.03447545 17.86524157 -32.03447545 17.86524157 -26.6171875 14.58203125 C-25.65495 11.48912499 -25.51747375 8.99042837 -25.7421875 5.76953125 C-24.1796875 7.01953125 -24.1796875 7.01953125 -22.7421875 8.76953125 C-22.89055232 12.92374633 -25.72638697 16.24188033 -27.7421875 19.76953125 C-15.3671875 19.27453125 -15.3671875 19.27453125 -2.7421875 18.76953125 C-4.7221875 15.30453125 -4.7221875 15.30453125 -6.7421875 11.76953125 C-6.64060841 6.69057687 -5.27511977 1.48033988 0 0 Z " fill="#99DAFF" transform="translate(432.7421875,272.23046875)"/>
<path d="M0 0 C1.15242188 0.10183594 2.30484375 0.20367187 3.4921875 0.30859375 C4.36101562 0.39238281 5.22984375 0.47617187 6.125 0.5625 C5.135 1.0575 5.135 1.0575 4.125 1.5625 C4.455 12.1225 4.785 22.6825 5.125 33.5625 C-1.25038806 34.83757761 -5.88633725 35.55683138 -11.875 32.5625 C-11.545 22.3325 -11.215 12.1025 -10.875 1.5625 C-11.535 1.2325 -12.195 0.9025 -12.875 0.5625 C-8.41295824 -0.3529645 -4.52954615 -0.41597873 0 0 Z " fill="#69C7FE" transform="translate(123.875,265.4375)"/>
<path d="M0 0 C2.21484375 1.015625 2.21484375 1.015625 4 2 C4.12406007 6.03825066 4.21455045 10.07575638 4.2746582 14.11547852 C4.29972617 15.48807102 4.33379082 16.86053102 4.37719727 18.23266602 C4.43817531 20.21050696 4.46361009 22.18934184 4.48828125 24.16796875 C4.51446533 25.35672607 4.54064941 26.5454834 4.56762695 27.77026367 C3.83321032 31.94901535 2.27837951 33.3978107 -1 36 C-4.0625 36.625 -4.0625 36.625 -7 36 C-10.85605436 32.20405937 -11.51543136 29.49927019 -11.609375 24.16796875 C-11.64160156 22.87568359 -11.67382812 21.58339844 -11.70703125 20.25195312 C-11.7217735 18.89713991 -11.73609112 17.54232202 -11.75 16.1875 C-11.77817759 14.81311361 -11.80810754 13.43876195 -11.83984375 12.06445312 C-11.91047274 8.7095759 -11.96320774 5.35539104 -12 2 C-7.76143786 0.16789424 -4.65062836 -0.33822752 0 0 Z " fill="#68C8FE" transform="translate(124,317)"/>
<path d="M0 0 C0.99 0 1.98 0 3 0 C2.67 8.25 2.34 16.5 2 25 C3.65 25 5.3 25 7 25 C8.546875 26.64453125 8.546875 26.64453125 9.75 28.8125 C10.15734375 29.52019531 10.5646875 30.22789062 10.984375 30.95703125 C12 33 12 33 13 36 C13.33 35.67 13.66 35.34 14 35 C17.72607794 34.51345429 21.28555488 34.39897462 25 35 C27.23462334 36.85139084 27.80971404 38.27934638 29 41 C28.505 41.99 28.505 41.99 28 43 C27.71125 42.175 27.4225 41.35 27.125 40.5 C25.28251012 37.80147612 25.28251012 37.80147612 22.6796875 37.5625 C17.54899215 37.26268517 17.54899215 37.26268517 13.1875 39.53125 C12.795625 40.0159375 12.40375 40.500625 12 41 C11.67 40.34 11.34 39.68 11 39 C10.34 39 9.68 39 9 39 C8.34 40.65 7.68 42.3 7 44 C3.22754782 44.47568574 -0.2496024 44.71310377 -4 44 C-5.95222939 42.07787106 -6.94220942 40.31987645 -8.09765625 37.84765625 C-8.85702046 35.81838556 -8.85702046 35.81838556 -11 35 C-10.34 36.98 -9.68 38.96 -9 41 C-9.5878125 40.27296875 -9.5878125 40.27296875 -10.1875 39.53125 C-13.1252821 37.04933064 -15.9727022 37.4760397 -19.6796875 37.5625 C-22.28251012 37.80147612 -22.28251012 37.80147612 -24.125 40.5 C-24.41375 41.325 -24.7025 42.15 -25 43 C-25.33 42.34 -25.66 41.68 -26 41 C-25.01 39.35 -24.02 37.7 -23 36 C-33.56 36 -44.12 36 -55 36 C-54.67 34.68 -54.34 33.36 -54 32 C-53.34 32 -52.68 32 -52 32 C-52 32.66 -52 33.32 -52 34 C-45.96670052 34.05483779 -39.93645642 34.05751643 -33.90307617 34.01220703 C-31.85165056 34.00410439 -29.80011751 34.01016497 -27.7487793 34.03076172 C-24.79593649 34.05793731 -21.84722747 34.03389953 -18.89453125 34 C-17.97976517 34.0194165 -17.06499908 34.03883301 -16.12251282 34.05883789 C-13.51109665 33.99991435 -11.4609777 33.88493607 -9 33 C-7.31816023 30.99260114 -6.2711206 29.11585801 -5.23417664 26.71484375 C-4.82689835 26.14894531 -4.41962006 25.58304687 -4 25 C-2.35 25 -0.7 25 1 25 C0.505 12.625 0.505 12.625 0 0 Z " fill="#96D9FF" transform="translate(361,248)"/>
<path d="M0 0 C2.7890625 0.95703125 2.7890625 0.95703125 3.79194641 2.77302551 C4.13042099 3.49737289 4.46889557 4.22172028 4.81762695 4.96801758 C6.35847151 7.52481908 7.1012379 8.7328834 9.97192383 9.66838074 C12.7196155 9.88339414 15.36742832 9.85690202 18.12109375 9.73828125 C19.11284103 9.72696167 20.10458832 9.71564209 21.12638855 9.70397949 C24.28676481 9.65927708 27.44256373 9.55892668 30.6015625 9.45703125 C32.74667915 9.41689629 34.8918671 9.38039554 37.03710938 9.34765625 C42.28931593 9.25956458 47.53886231 9.12579537 52.7890625 8.95703125 C52.7890625 9.94703125 52.7890625 10.93703125 52.7890625 11.95703125 C52.23640213 11.93926636 51.68374176 11.92150146 51.11433411 11.90319824 C45.35585978 11.72604285 39.59816002 11.60549134 33.83764648 11.51757812 C31.68888914 11.47737505 29.54035026 11.4228012 27.39233398 11.35351562 C24.30137304 11.25632009 21.21330512 11.21107505 18.12109375 11.17578125 C17.16258011 11.13449097 16.20406647 11.09320068 15.21650696 11.05065918 C12.51162536 11.04884428 10.363343 11.11871767 7.7890625 11.95703125 C5.99266918 13.90735003 4.90917161 15.73497954 3.78507996 18.1307373 C2.7890625 19.95703125 2.7890625 19.95703125 0.0703125 21.01953125 C-7.14590372 20.85736909 -7.14590372 20.85736909 -10.10546875 18.35546875 C-12.49012379 14.95257258 -13.36297681 12.92628186 -12.7109375 8.76953125 C-12.2159375 7.84140625 -11.7209375 6.91328125 -11.2109375 5.95703125 C-10.9015625 5.00828125 -10.5921875 4.05953125 -10.2734375 3.08203125 C-7.18879556 -0.09608469 -4.27592611 0.2179191 0 0 Z " fill="#E5F5FF" transform="translate(420.2109375,261.04296875)"/>
<path d="M0 0 C0.95422852 0.42249023 0.95422852 0.42249023 1.92773438 0.85351562 C3.47613051 1.54039812 5.01983357 2.23784407 6.5625 2.9375 C6.5625 3.9275 6.5625 4.9175 6.5625 5.9375 C-7.60355158 10.85626791 -15.98306259 10.61073916 -30.4375 5.9375 C-30.4375 4.9475 -30.4375 3.9575 -30.4375 2.9375 C-27.92523942 1.72811646 -25.40534793 0.54542526 -22.875 -0.625 C-22.17052734 -0.96724609 -21.46605469 -1.30949219 -20.74023438 -1.66210938 C-13.05244019 -5.16944405 -7.37286244 -3.36264943 0 0 Z " fill="#1B2EAE" transform="translate(132.4375,305.0625)"/>
<path d="M0 0 C11.84470327 -0.56905158 11.84470327 -0.56905158 17 3 C19 6 19 6 18.75 9.4375 C18 13 18 13 16.8125 15.125 C15.70549608 17.11677485 15.70549608 17.11677485 16.875 19.75 C17.24625 20.4925 17.6175 21.235 18 22 C18.66 22 19.32 22 20 22 C20 22.66 20 23.32 20 24 C17.69 24 15.38 24 13 24 C12.34 21.69 11.68 19.38 11 17 C9.02 16.67 7.04 16.34 5 16 C5.66 18.64 6.32 21.28 7 24 C4.69 24 2.38 24 0 24 C0 16 0 8 0 0 Z " fill="#3041B5" transform="translate(421,189)"/>
<path d="M0 0 C0.99 0.33 1.98 0.66 3 1 C5.475 14.86 5.475 14.86 8 29 C9.32 27.35 10.64 25.7 12 24 C14.359375 23.51171875 14.359375 23.51171875 16.75 23.6875 C17.94882812 23.75517578 17.94882812 23.75517578 19.171875 23.82421875 C19.77515625 23.88222656 20.3784375 23.94023437 21 24 C20.505 25.485 20.505 25.485 20 27 C17.36 27 14.72 27 12 27 C11.01 29.97 10.02 32.94 9 36 C8.01 36 7.02 36 6 36 C5.32488531 32.2931535 4.66141959 28.58431256 4 24.875 C3.80921875 23.82828125 3.6184375 22.7815625 3.421875 21.703125 C3.24140625 20.68476563 3.0609375 19.66640625 2.875 18.6171875 C2.70742188 17.68503418 2.53984375 16.75288086 2.3671875 15.79248047 C1.9778528 12.8315694 1.93841585 9.98298238 2 7 C1.34 7 0.68 7 0 7 C-0.103125 8.258125 -0.20625 9.51625 -0.3125 10.8125 C-0.91590491 16.3851218 -2.40690933 21.63960058 -4 27 C-4.99 26.67 -5.98 26.34 -7 26 C-7.94921875 23.49609375 -7.94921875 23.49609375 -8.6875 20.4375 C-8.93886719 19.42558594 -9.19023437 18.41367188 -9.44921875 17.37109375 C-9.63097656 16.58863281 -9.81273437 15.80617187 -10 15 C-10.66 15 -11.32 15 -12 15 C-12.12117188 15.69867188 -12.24234375 16.39734375 -12.3671875 17.1171875 C-12.53476562 18.02726562 -12.70234375 18.93734375 -12.875 19.875 C-13.03742188 20.77992188 -13.19984375 21.68484375 -13.3671875 22.6171875 C-14 25 -14 25 -16 27 C-18.51505626 27.38760427 -20.90806923 27.64831305 -23.4375 27.8125 C-24.4594043 27.90821289 -24.4594043 27.90821289 -25.50195312 28.00585938 C-30.46245009 28.35081068 -30.46245009 28.35081068 -32.9453125 26.73046875 C-34.7407922 23.78455206 -34.41722845 21.3378276 -34 18 C-32.375 16.0625 -32.375 16.0625 -30 15 C-26.88810534 14.75104843 -24.80915474 14.59542263 -22 16 C-22 16.99 -22 17.98 -22 19 C-24.31 19 -26.62 19 -29 19 C-29 20.65 -29 22.3 -29 24 C-24.71 24 -20.42 24 -16 24 C-15.896875 22.989375 -15.79375 21.97875 -15.6875 20.9375 C-14.96295233 16.78781792 -13.77730734 13.78643737 -12 10 C-11.34 10 -10.68 10 -10 10 C-8.68 13.3 -7.36 16.6 -6 20 C-4.55198278 17.10396556 -3.66040106 15.1296577 -2.9296875 12.109375 C-2.66865234 11.04589844 -2.66865234 11.04589844 -2.40234375 9.9609375 C-2.14130859 8.86652344 -2.14130859 8.86652344 -1.875 7.75 C-1.69324219 7.00492188 -1.51148438 6.25984375 -1.32421875 5.4921875 C-0.87852501 3.6624974 -0.43868041 1.83138425 0 0 Z " fill="#7ACFFF" transform="translate(445,215)"/>
<path d="M0 0 C2.3828125 -0.29296875 2.3828125 -0.29296875 5.125 -0.1875 C6.03507812 -0.16042969 6.94515625 -0.13335937 7.8828125 -0.10546875 C8.58148438 -0.07066406 9.28015625 -0.03585937 10 0 C11.87898639 2.46952497 13.08791738 4.08953412 14 7 C13.49924595 10.6224761 12.67729383 15.32270617 10 18 C8.33382885 18.04063832 6.66611905 18.042721 5 18 C5.03029297 18.64549805 5.06058594 19.29099609 5.09179688 19.95605469 C5.22882142 22.88732597 5.36442559 25.8186613 5.5 28.75 C5.54769531 29.76578125 5.59539062 30.7815625 5.64453125 31.828125 C5.68964844 32.8078125 5.73476563 33.7875 5.78125 34.796875 C5.8440918 36.14797363 5.8440918 36.14797363 5.90820312 37.52636719 C5.98823524 39.68297724 6 41.84190546 6 44 C5.01 43.67 4.02 43.34 3 43 C3.33 34.75 3.66 26.5 4 18 C2.35 18 0.7 18 -1 18 C-1.86646667 16.56988027 -2.71781829 15.13059381 -3.5625 13.6875 C-4.03816406 12.88699219 -4.51382812 12.08648437 -5.00390625 11.26171875 C-6 9 -6 9 -5 6 C-4.02149805 4.97895449 -3.02019573 3.9793879 -2 3 C-1.34 2.01 -0.68 1.02 0 0 Z " fill="#FAFDFF" transform="translate(376,306)"/>
<path d="M0 0 C3.28789606 0.13953936 4.98881902 0.25883622 7.4921875 2.4375 C9.50959812 5.44651923 10.60081071 7.79654992 10.6875 11.4375 C10.336875 12.22125 9.98625 13.005 9.625 13.8125 C9.17125 14.905625 8.7175 15.99875 8.25 17.125 C5.625 19.8125 5.625 19.8125 2.9140625 20.19140625 C0.12725916 20.18782424 -2.60090325 20.07077797 -5.375 19.8125 C-8.27955101 13.88237503 -9.38446825 9.46211597 -7.5625 2.875 C-4.88983645 0.35506008 -3.61287424 0.28202787 0 0 Z " fill="#E4F5FF" transform="translate(362.375,314.1875)"/>
<path d="M0 0 C3.96 0 7.92 0 12 0 C15.65505425 8.62592804 15.65505425 8.62592804 14 13 C13.690625 13.928125 13.38125 14.85625 13.0625 15.8125 C10.57446025 18.45133004 9.66131788 18.46680854 6.125 18.6875 C3.28665288 18.55490568 1.58632394 18.42352971 -0.73046875 16.75 C-2.79533104 14.32787415 -3.99678542 12.00964375 -5 9 C-3.60242647 5.82668598 -1.77540369 2.9878745 0 0 Z " fill="#EAF7FF" transform="translate(375,262)"/>
<path d="M0 0 C6.85437798 -0.22847927 6.85437798 -0.22847927 9.8203125 2.109375 C11.29914793 3.85708959 12.61186626 5.60095915 13.828125 7.5390625 C12.48701299 11.14974869 11.19222817 14.48203254 8.828125 17.5390625 C5.91015625 18.02734375 5.91015625 18.02734375 2.640625 17.8515625 C1.55394531 17.80644531 0.46726562 17.76132812 -0.65234375 17.71484375 C-1.48378906 17.65683594 -2.31523437 17.59882813 -3.171875 17.5390625 C-7.171875 11.0390625 -7.171875 11.0390625 -7.171875 6.5390625 C-5.796875 4.9765625 -5.796875 4.9765625 -4.171875 3.5390625 C-2.171875 0.5390625 -2.171875 0.5390625 0 0 Z " fill="#E9F7FF" transform="translate(341.171875,284.4609375)"/>
<path d="M0 0 C2.359375 0.50390625 2.359375 0.50390625 5.109375 2.94140625 C6.76964564 7.67317757 5.96744181 10.85631433 4.359375 15.50390625 C4.029375 16.16390625 3.699375 16.82390625 3.359375 17.50390625 C-0.73892929 17.97452492 -4.56043121 18.19716875 -8.640625 17.50390625 C-11.41066745 15.25836888 -12.70366081 12.92669381 -13.640625 9.50390625 C-13.203125 6.75390625 -13.203125 6.75390625 -11.640625 4.50390625 C-11.145625 3.74078125 -10.650625 2.97765625 -10.140625 2.19140625 C-6.73775742 -0.10552936 -4.04876708 -0.18566831 0 0 Z " fill="#EDF8FF" transform="translate(383.640625,284.49609375)"/>
<path d="M0 0 C2.97 0 5.94 0 9 0 C10.20484722 5.63526965 10.1129643 11.14536115 10.0625 16.875 C10.05798828 17.84953125 10.05347656 18.8240625 10.04882812 19.828125 C10.03710924 22.21877668 10.01917596 24.6093965 10 27 C7.03 27 4.06 27 1 27 C0.67 18.09 0.34 9.18 0 0 Z " fill="#F8F7FE" transform="translate(318,151)"/>
<path d="M0 0 C2.97 0 5.94 0 9 0 C9 8.91 9 17.82 9 27 C6.36 27 3.72 27 1 27 C0.20293232 23.50007304 -0.11863027 20.2857769 -0.09765625 16.69921875 C-0.09443359 15.72275391 -0.09121094 14.74628906 -0.08789062 13.74023438 C-0.07951172 12.73283203 -0.07113281 11.72542969 -0.0625 10.6875 C-0.05798828 9.66076172 -0.05347656 8.63402344 -0.04882812 7.57617188 C-0.03708184 5.05072118 -0.02065565 2.52539095 0 0 Z " fill="#F9FAFE" transform="translate(369,149)"/>
<path d="M0 0 C2.31 0 4.62 0 7 0 C6.67 0.99 6.34 1.98 6 3 C5.93334624 4.39439664 5.91461801 5.79169875 5.9375 7.1875 C5.958125 8.445625 5.97875 9.70375 6 11 C7.17858863 9.9296491 8.3425361 8.84316035 9.5 7.75 C10.47453125 6.84507812 10.47453125 6.84507812 11.46875 5.921875 C13.41542862 3.88814492 13.41542862 3.88814492 13 0 C15.31 0 17.62 0 20 0 C18.86695008 3.39914975 17.87481525 4.05254451 15 6 C15.59793221 9.79143377 16.71654613 12.73436387 18.5 16.125 C19.88219118 18.76884242 21.05451687 21.1635506 22 24 C19.69 24 17.38 24 15 24 C14.71125 22.783125 14.4225 21.56625 14.125 20.3125 C13.32164208 17.08185352 12.33734591 14.05679065 11 11 C8.3726974 11.99135641 8.3726974 11.99135641 6 14 C5.59434276 17.78613423 5.79692013 20.39076038 7 24 C4.69 24 2.38 24 0 24 C0 16 0 8 0 0 Z " fill="#2C3DB3" transform="translate(321,189)"/>
<path d="M0 0 C1.33998047 0.06960938 1.33998047 0.06960938 2.70703125 0.140625 C3.60808594 0.17671875 4.50914062 0.2128125 5.4375 0.25 C6.46810547 0.31960938 6.46810547 0.31960938 7.51953125 0.390625 C9.13269968 2.76293151 10.47997608 4.74930625 11.51953125 7.390625 C10.80260628 11.11863485 9.62442092 13.23329049 7.51953125 16.390625 C4.12010119 17.15460841 0.93053016 17.06623348 -2.48046875 16.390625 C-5.16796875 13.765625 -5.16796875 13.765625 -6.48046875 10.390625 C-6.38554106 5.64424037 -5.21869456 0.82184166 0 0 Z " fill="#FDFEFF" transform="translate(415.48046875,305.609375)"/>
<path d="M0 0 C3.3 0 6.6 0 10 0 C14.01836735 6.21020408 14.01836735 6.21020408 13.9375 9.6875 C12.89022285 12.27078363 11.91789172 13.96754395 10 16 C7.51953125 16.390625 7.51953125 16.390625 4.8125 16.25 C3.91144531 16.21390625 3.01039063 16.1778125 2.08203125 16.140625 C1.39496094 16.09421875 0.70789063 16.0478125 0 16 C-2.94623656 11.58064516 -2.94623656 11.58064516 -4 9 C-3.375 6.3125 -3.375 6.3125 -2 4 C-1.34 2.68 -0.68 1.36 0 0 Z " fill="#FDFEFF" transform="translate(431,274)"/>
<path d="M0 0 C3.4416833 0.90096421 4.80364614 2.71666006 6.56640625 5.7109375 C7.23828125 7.5859375 7.23828125 7.5859375 6.67578125 10.2734375 C6.20140625 11.0365625 5.72703125 11.7996875 5.23828125 12.5859375 C4.57828125 13.9059375 3.91828125 15.2259375 3.23828125 16.5859375 C-0.39171875 16.5859375 -4.02171875 16.5859375 -7.76171875 16.5859375 C-9.69728649 13.3341837 -10.7898237 11.28856121 -10.63671875 7.4609375 C-8.73030695 1.19701302 -6.50730809 -0.27690673 0 0 Z " fill="#FCFEFF" transform="translate(364.76171875,273.4140625)"/>
<path d="M0 0 C2.62527189 -0.05382106 5.24944713 -0.09358313 7.875 -0.125 C8.62136719 -0.14175781 9.36773437 -0.15851563 10.13671875 -0.17578125 C12.09194461 -0.1933959 14.04742021 -0.10320189 16 0 C18 2 18 2 18 6 C17.01 5.67 16.02 5.34 15 5 C15 4.34 15 3.68 15 3 C12.36 3 9.72 3 7 3 C6.67 5.31 6.34 7.62 6 10 C8.64 9.34 11.28 8.68 14 8 C14 10.31 14 12.62 14 15 C13.34 15 12.68 15 12 15 C12 14.34 12 13.68 12 13 C10.02 13 8.04 13 6 13 C6 15.97 6 18.94 6 22 C7.27875 21.896875 8.5575 21.79375 9.875 21.6875 C10.59429687 21.62949219 11.31359375 21.57148438 12.0546875 21.51171875 C14.39519216 21.12606964 14.39519216 21.12606964 16 18 C16.66 18 17.32 18 18 18 C18.042721 19.66611905 18.04063832 21.33382885 18 23 C17 24 17 24 13.18359375 24.09765625 C11.60153318 24.09098089 10.01948841 24.07901875 8.4375 24.0625 C7.63119141 24.05798828 6.82488281 24.05347656 5.99414062 24.04882812 C3.99606244 24.03700518 1.99802217 24.01906914 0 24 C0.495 22.515 0.495 22.515 1 21 C1.09130522 19.62732077 1.13065525 18.25071082 1.1328125 16.875 C1.13410156 16.08609375 1.13539063 15.2971875 1.13671875 14.484375 C1.13285156 13.66453125 1.12898438 12.8446875 1.125 12 C1.12886719 11.18015625 1.13273437 10.3603125 1.13671875 9.515625 C1.13542969 8.72671875 1.13414062 7.9378125 1.1328125 7.125 C1.13168457 6.40570313 1.13055664 5.68640625 1.12939453 4.9453125 C1.06777378 2.78237639 1.06777378 2.78237639 0 0 Z " fill="#2033AF" transform="translate(445,189)"/>
<path d="M0 0 C1.32 0 2.64 0 4 0 C5.703125 1.96875 5.703125 1.96875 7.25 4.5 C8.03117188 5.75296875 8.03117188 5.75296875 8.828125 7.03125 C9.21484375 7.6809375 9.6015625 8.330625 10 9 C10.39832031 8.3503125 10.79664063 7.700625 11.20703125 7.03125 C11.73683594 6.1959375 12.26664063 5.360625 12.8125 4.5 C13.59560547 3.24703125 13.59560547 3.24703125 14.39453125 1.96875 C15.18923828 0.99421875 15.18923828 0.99421875 16 0 C16.99 0 17.98 0 19 0 C19 5.61 19 11.22 19 17 C17.68 17 16.36 17 15 17 C14.67 14.69 14.34 12.38 14 10 C13.566875 10.825 13.13375 11.65 12.6875 12.5 C11.8521875 13.7375 11.8521875 13.7375 11 15 C10.01 15 9.02 15 8 15 C6.3125 12.5 6.3125 12.5 5 10 C4.67 12.31 4.34 14.62 4 17 C2.68 17 1.36 17 0 17 C0 11.39 0 5.78 0 0 Z " fill="#73CCFF" transform="translate(231,226)"/>
<path d="M0 0 C2.64 0 5.28 0 8 0 C7.67 0.99 7.34 1.98 7 3 C6.87829195 5.51341281 6.81489342 7.98690901 6.8125 10.5 C6.80025391 11.17675781 6.78800781 11.85351562 6.77539062 12.55078125 C6.76440604 16.26357044 6.88655384 17.82983076 9 21 C12 21.5 12 21.5 15 21 C17.06723714 17.89914429 17.24497423 17.27068319 17.1953125 13.76953125 C17.18886719 12.96708984 17.18242187 12.16464844 17.17578125 11.33789062 C17.15902344 10.50451172 17.14226562 9.67113281 17.125 8.8125 C17.11597656 7.96751953 17.10695313 7.12253906 17.09765625 6.25195312 C17.07410703 4.16784757 17.03823647 2.08388783 17 0 C18.65 0 20.3 0 22 0 C21.93963048 2.71059145 21.8524809 5.41593977 21.75 8.125 C21.72873047 9.26582031 21.72873047 9.26582031 21.70703125 10.4296875 C21.45793065 16.2088214 20.18574284 19.81425716 16 24 C14.109375 24.2734375 14.109375 24.2734375 11.75 24.375 C10.59757812 24.44847656 10.59757812 24.44847656 9.421875 24.5234375 C5.67000751 23.71255001 4.28486829 22.03062392 2 19 C1.49999417 16.11043141 1.2552485 13.75642795 1.25 10.875 C1.18743029 5.36034965 1.18743029 5.36034965 0 0 Z " fill="#2B3CB3" transform="translate(394,189)"/>
<path d="M0 0 C0.99 0 1.98 0 3 0 C3 5.94 3 11.88 3 18 C-6.16988417 18.48262548 -6.16988417 18.48262548 -9.6875 16.4375 C-11.57481508 12.93248628 -11.04621254 10.76636515 -10 7 C-6.1496895 4.43312633 -4.41430237 5.16711276 0 6 C0 4.02 0 2.04 0 0 Z " fill="#6FCAFF" transform="translate(282,225)"/>
<path d="M0 0 C1.49080078 0.02707031 1.49080078 0.02707031 3.01171875 0.0546875 C3.77097656 0.07789063 4.53023438 0.10109375 5.3125 0.125 C5.6425 2.765 5.9725 5.405 6.3125 8.125 C5.44625 7.3 4.58 6.475 3.6875 5.625 C1.2721328 3.62075913 0.3422292 3.13024633 -2.875 2.5625 C-5.69425517 2.91137465 -5.69425517 2.91137465 -7.5625 4.5625 C-9.26652227 8.44388407 -9.46366765 11.96326296 -8.6875 16.125 C-6.83108251 19.3989971 -6.83108251 19.3989971 -3.6875 21.125 C-0.00454471 20.99800154 2.83194558 20.28518481 6.3125 19.125 C5.3125 22.125 5.3125 22.125 3.52734375 23.2890625 C-0.19888494 24.69543453 -3.76953836 24.71164666 -7.6875 24.125 C-10.55779869 22.33106332 -12.17881638 21.14236724 -13.6875 18.125 C-14.29779595 12.71080311 -14.73964882 8.51838627 -11.375 4.0625 C-7.15428092 1.01965601 -5.20068357 -0.12236903 0 0 Z " fill="#2A3CB2" transform="translate(382.6875,188.875)"/>
<path d="M0 0 C3.50367037 0.35036704 4.86023555 0.61220392 7.125 3.3125 C7.875 6.4375 7.875 6.4375 7.125 10.3125 C4.78113598 13.64799879 2.17829945 16.60867459 -0.875 19.3125 C-1.535 19.3125 -2.195 19.3125 -2.875 19.3125 C-2.875 19.9725 -2.875 20.6325 -2.875 21.3125 C1.085 20.6525 5.045 19.9925 9.125 19.3125 C8.795 20.9625 8.465 22.6125 8.125 24.3125 C2.845 24.3125 -2.435 24.3125 -7.875 24.3125 C-6.1441112 20.8507224 -4.91804096 19.17081547 -2.3125 16.5 C1.0975838 12.72909821 2.01995816 10.35450847 2.125 5.3125 C-0.78982778 4.50282562 -2.33613217 4.09404007 -5.1875 5.25 C-5.744375 5.600625 -6.30125 5.95125 -6.875 6.3125 C-4.13912214 0.44990458 -4.13912214 0.44990458 0 0 Z " fill="#2C3DB3" transform="translate(354.875,188.6875)"/>
<path d="M0 0 C1 1 1 1 1.0625 4.0625 C1.041875 5.031875 1.02125 6.00125 1 7 C0.154375 6.319375 -0.69125 5.63875 -1.5625 4.9375 C-4.88698315 2.68211484 -4.88698315 2.68211484 -8.75 3.0625 C-12.26466952 3.69748242 -12.26466952 3.69748242 -14 7 C-14.33341215 11.50106401 -14.17233418 14.99833178 -12 19 C-8.4913604 21.33909307 -7.12910567 21.41291057 -3 21 C-0.18219466 19.61114752 -0.18219466 19.61114752 2 18 C1.08486681 20.28783297 0.34515354 21.73449728 -1.625 23.25 C-5.13782654 24.35931365 -8.39670162 24.69161197 -12 24 C-15.52379766 22.02970454 -17.70068885 19.89793345 -19 16 C-19.39544498 11.80828319 -19.26960901 9.51924698 -17.3125 5.75 C-12.25913954 -0.25940163 -7.55890902 -0.72789494 0 0 Z " fill="#2B3CB3" transform="translate(314,189)"/>
<path d="M0 0 C1 1 1 1 1.0625 4.0625 C1.041875 5.031875 1.02125 6.00125 1 7 C0.154375 6.319375 -0.69125 5.63875 -1.5625 4.9375 C-4.88698315 2.68211484 -4.88698315 2.68211484 -8.75 3.0625 C-12.26466952 3.69748242 -12.26466952 3.69748242 -14 7 C-14.33341215 11.50106401 -14.17233418 14.99833178 -12 19 C-8.4913604 21.33909307 -7.12910567 21.41291057 -3 21 C-0.18219466 19.61114752 -0.18219466 19.61114752 2 18 C1.08486681 20.28783297 0.34515354 21.73449728 -1.625 23.25 C-5.13782654 24.35931365 -8.39670162 24.69161197 -12 24 C-15.52379766 22.02970454 -17.70068885 19.89793345 -19 16 C-19.39544498 11.80828319 -19.26960901 9.51924698 -17.3125 5.75 C-12.25913954 -0.25940163 -7.55890902 -0.72789494 0 0 Z " fill="#2B3CB3" transform="translate(255,189)"/>
<path d="M0 0 C0 6.93 0 13.86 0 21 C-4.26295131 18.86852435 -8.68342129 16.5569917 -10.9453125 12.1640625 C-11.03336953 8.67951987 -9.00680582 7.21719313 -6.6875 4.75 C-5.45580078 3.41195312 -5.45580078 3.41195312 -4.19921875 2.046875 C-2 0 -2 0 0 0 Z " fill="#F5F3FE" transform="translate(313,154)"/>
<path d="M0 0 C3.03382559 1.74988575 5.81793096 3.47369151 8.375 5.875 C8.89835937 6.34679687 9.42171875 6.81859375 9.9609375 7.3046875 C11 9 11 9 10.9140625 11.42578125 C9.8098151 14.53560618 8.38531449 16.05071072 6 18.3125 C5.278125 19.00988281 4.55625 19.70726562 3.8125 20.42578125 C2 22 2 22 1 22 C0.08839714 14.64206267 -0.11459026 7.41017023 0 0 Z " fill="#F9F9FE" transform="translate(333,153)"/>
<path d="M0 0 C5.625 2.25 5.625 2.25 8.3125 5.625 C8.82425781 6.25664062 9.33601563 6.88828125 9.86328125 7.5390625 C10.23839844 8.02117187 10.61351562 8.50328125 11 9 C8.2961694 14.30366771 5.80824386 17.47395451 1 21 C0.67 21 0.34 21 0 21 C0 14.07 0 7.14 0 0 Z " fill="#F5F9FD" transform="translate(384,152)"/>
<path d="M0 0 C2.31 0 4.62 0 7 0 C6.67 0.99 6.34 1.98 6 3 C5.85426942 4.47965926 5.75336732 5.96403843 5.68359375 7.44921875 C5.64169922 8.29677734 5.59980469 9.14433594 5.55664062 10.01757812 C5.51732422 10.89865234 5.47800781 11.77972656 5.4375 12.6875 C5.39431641 13.58017578 5.35113281 14.47285156 5.30664062 15.39257812 C5.20064647 17.59490108 5.09857949 19.79733473 5 22 C8.43230448 21.73606499 8.43230448 21.73606499 12 21 C12.66 20.01 13.32 19.02 14 18 C14.66 18 15.32 18 16 18 C16.042721 19.66611905 16.04063832 21.33382885 16 23 C15 24 15 24 11.62109375 24.09765625 C10.22652923 24.09098369 8.83198257 24.07902532 7.4375 24.0625 C6.72658203 24.05798828 6.01566406 24.05347656 5.28320312 24.04882812 C3.52209987 24.03700864 1.76103964 24.01907263 0 24 C0 16 0 8 0 0 Z " fill="#2C3DB3" transform="translate(262,189)"/>
<path d="M0 0 C0 6.93 0 13.86 0 21 C-4.6870124 18.18779256 -7.31473061 15.85667727 -11 12 C-9.56438314 8.81293058 -7.79733671 6.37830895 -5.5 3.75 C-4.8915625 3.04359375 -4.283125 2.3371875 -3.65625 1.609375 C-2 0 -2 0 0 0 Z " fill="#F9FAFE" transform="translate(363,152)"/>
<path d="M0 0 C2.375 1.1875 2.375 1.1875 4 3 C4.25 5.6875 4.25 5.6875 4 8 C2.68 8.33 1.36 8.66 0 9 C0.99 9.33 1.98 9.66 3 10 C3 10.66 3 11.32 3 12 C-0.04983996 13.52491998 -2.6423369 13.23562548 -6 13 C-7.9375 11.9375 -7.9375 11.9375 -9 10 C-9.63316583 4.09045226 -9.63316583 4.09045226 -7.875 1.0625 C-5.09808875 -0.51108304 -3.13770673 -0.38420899 0 0 Z " fill="#6FCBFF" transform="translate(264,230)"/>
<path d="M0 0 C0.99 0.66 1.98 1.32 3 2 C2.67 2.99 2.34 3.98 2 5 C0.88625 4.814375 -0.2275 4.62875 -1.375 4.4375 C-4.82568861 3.68319343 -4.82568861 3.68319343 -7 5 C-7.04241723 7.33294775 -7.04092937 9.66702567 -7 12 C-5.96298597 13.26626225 -5.96298597 13.26626225 -3.6875 13.0625 C-2.800625 13.041875 -1.91375 13.02125 -1 13 C0.32 13 1.64 13 3 13 C2.34 14.32 1.68 15.64 1 17 C-6.57264502 17.89089941 -6.57264502 17.89089941 -9.74609375 15.91015625 C-12.35925942 13.11932493 -12.99453446 11.15850077 -13.125 7.375 C-10.86419731 0.59259193 -6.83382683 -0.75931409 0 0 Z " fill="#74CCFF" transform="translate(360,226)"/>
<path d="M0 0 C6.625 -0.25 6.625 -0.25 10 2 C10.29296875 4.6015625 10.29296875 4.6015625 10.1875 7.625 C10.16042969 8.62789062 10.13335937 9.63078125 10.10546875 10.6640625 C10.07066406 11.43492187 10.03585937 12.20578125 10 13 C8.37536158 13.05395478 6.75021459 13.09277195 5.125 13.125 C4.22007812 13.14820313 3.31515625 13.17140625 2.3828125 13.1953125 C0 13 0 13 -2 11 C-1.625 8.375 -1.625 8.375 -1 6 C0.98 5.34 2.96 4.68 5 4 C3.02 4 1.04 4 -1 4 C-0.67 2.68 -0.34 1.36 0 0 Z " fill="#84D2FF" transform="translate(316,230)"/>
<path d="M0 0 C3.96 0 7.92 0 12 0 C16 6.75 16 6.75 16 9 C33.49 8.67 50.98 8.34 69 8 C68.67 8.99 68.34 9.98 68 11 C55.46 10.67 42.92 10.34 30 10 C30.495 11.98 30.495 11.98 31 14 C30.34 13.67 29.68 13.34 29 13 C27.12620395 12.92966231 25.24998898 12.9156978 23.375 12.9375 C21.87066406 12.95103516 21.87066406 12.95103516 20.3359375 12.96484375 C19.17964844 12.98224609 19.17964844 12.98224609 18 13 C18 12.34 18 11.68 18 11 C15.87635519 10.77390663 15.87635519 10.77390663 14.375 12.5 C13.92125 12.995 13.4675 13.49 13 14 C13.226875 13.113125 13.45375 12.22625 13.6875 11.3125 C14.0580607 7.38455656 13.19715036 6.16389652 11 3 C11 2.34 11 1.68 11 1 C9.39482903 1.08733576 7.79078338 1.19552224 6.1875 1.3125 C5.29417969 1.37050781 4.40085937 1.42851562 3.48046875 1.48828125 C0.69396 2.06313581 -0.24135754 2.8206856 -2 5 C-1.34 3.35 -0.68 1.7 0 0 Z " fill="#96D9FF" transform="translate(412,305)"/>
<path d="M0 0 C8.3984375 -0.1953125 8.3984375 -0.1953125 11 0 C13 2 13 2 13.1953125 4.6015625 C13.17210937 5.59929687 13.14890625 6.59703125 13.125 7.625 C13.10695313 8.62789062 13.08890625 9.63078125 13.0703125 10.6640625 C13.03550781 11.82035156 13.03550781 11.82035156 13 13 C11.68 13 10.36 13 9 13 C8.67 10.03 8.34 7.06 8 4 C7.01 4 6.02 4 5 4 C4.67 6.97 4.34 9.94 4 13 C2.68 13 1.36 13 0 13 C0 8.71 0 4.42 0 0 Z " fill="#71CBFF" transform="translate(385,230)"/>
<path d="M0 0 C20.79 0 41.58 0 63 0 C63 0.33 63 0.66 63 1 C59.04 1 55.08 1 51 1 C51.495 2.98 51.495 2.98 52 5 C51.34 4.67 50.68 4.34 50 4 C50 3.34 50 2.68 50 2 C46.7 2 43.4 2 40 2 C39.566875 3.4540625 39.566875 3.4540625 39.125 4.9375 C38 8 38 8 36 9 C37.875 3.25 37.875 3.25 39 1 C31.08 1.33 23.16 1.66 15 2 C15.66 3.98 16.32 5.96 17 8 C15.29159719 6.36587557 14.06546953 5.13093906 13 3 C11.54176788 2.9729957 10.08339325 2.95360213 8.625 2.9375 C7.40683594 2.92009766 7.40683594 2.92009766 6.1640625 2.90234375 C3.95062858 2.85533666 3.95062858 2.85533666 2 4 C2 3.01 2 2.02 2 1 C1.34 0.67 0.68 0.34 0 0 Z " fill="#B9E5FF" transform="translate(391,293)"/>
<path d="M0 0 C2.31 0 4.62 0 7 0 C6.67 0.99 6.34 1.98 6 3 C5.90869478 4.37267923 5.86934475 5.74928918 5.8671875 7.125 C5.86589844 7.91390625 5.86460937 8.7028125 5.86328125 9.515625 C5.86714844 10.33546875 5.87101562 11.1553125 5.875 12 C5.87113281 12.81984375 5.86726563 13.6396875 5.86328125 14.484375 C5.86457031 15.27328125 5.86585938 16.0621875 5.8671875 16.875 C5.86831543 17.59429687 5.86944336 18.31359375 5.87060547 19.0546875 C5.93222622 21.21762361 5.93222622 21.21762361 7 24 C4.69 24 2.38 24 0 24 C0 16 0 8 0 0 Z " fill="#2D3EB3" transform="translate(283,189)"/>
<path d="M0 0 C2.98928414 0.23599612 4.59115638 0.64566887 6.875 2.625 C8.50174586 6.05924127 7.8456142 8.35735422 7 12 C6.608125 12.70125 6.21625 13.4025 5.8125 14.125 C4.70549608 16.11677485 4.70549608 16.11677485 5.875 18.75 C6.24625 19.4925 6.6175 20.235 7 21 C7.66 21 8.32 21 9 21 C9 21.66 9 22.32 9 23 C6.69 23 4.38 23 2 23 C1.60936493 21.56666979 1.23801526 20.12807321 0.875 18.6875 C0.66617187 17.88699219 0.45734375 17.08648437 0.2421875 16.26171875 C0 14 0 14 2 11 C2.5486783 6.19792453 2.5486783 6.19792453 0.5 2.0625 C0.005 1.711875 -0.49 1.36125 -1 1 C-0.67 0.67 -0.34 0.34 0 0 Z " fill="#3041B5" transform="translate(432,190)"/>
<path d="M0 0 C6.75 0.75 6.75 0.75 9 3 C9.25 6.5 9.25 6.5 9 10 C7 12 7 12 3.375 12.125 C2.26125 12.08375 1.1475 12.0425 0 12 C0 8.04 0 4.08 0 0 Z " fill="#F2F3FA" transform="translate(426,191)"/>
<path d="M0 0 C0.99 0.66 1.98 1.32 3 2 C3 2.66 3 3.32 3 4 C-0.13349732 5.04449911 -0.98968256 4.93423645 -4 4 C-4.33 5.32 -4.66 6.64 -5 8 C-2.10765685 8.82638376 -0.11257569 9 3 9 C2.34 10.32 1.68 11.64 1 13 C-5.3 13.48461538 -5.3 13.48461538 -8.4375 11.3125 C-10 9 -10 9 -10.5 6.5 C-9.31860895 0.59304476 -5.58475636 -0.71294762 0 0 Z " fill="#74CCFF" transform="translate(308,230)"/>
<path d="M0 0 C0.66 0 1.32 0 2 0 C2 0.66 2 1.32 2 2 C16.19 2 30.38 2 45 2 C44.34 2.33 43.68 2.66 43 3 C43.66 4.98 44.32 6.96 45 9 C44.4121875 8.27296875 44.4121875 8.27296875 43.8125 7.53125 C40.8747179 5.04933064 38.0272978 5.4760397 34.3203125 5.5625 C31.71748988 5.80147612 31.71748988 5.80147612 29.875 8.5 C29.441875 9.7375 29.441875 9.7375 29 11 C28.67 10.34 28.34 9.68 28 9 C28.99 7.35 29.98 5.7 31 4 C20.44 4 9.88 4 -1 4 C-0.67 2.68 -0.34 1.36 0 0 Z " fill="#A5DEFF" transform="translate(307,280)"/>
<path d="M0 0 C0.495 0.99 0.495 0.99 1 2 C0.06553465 4.03144641 -0.93224776 6.03533587 -2 8 C-0.68 7.34 0.64 6.68 2 6 C2.66 8.97 3.32 11.94 4 15 C1 12 1 12 0 10 C-12.21 10 -24.42 10 -37 10 C-37 9.01 -37 8.02 -37 7 C-29.41 7 -21.82 7 -14 7 C-13.67 6.34 -13.34 5.68 -13 5 C-11.96939453 5.08701172 -11.96939453 5.08701172 -10.91796875 5.17578125 C-8.20196179 5.31177588 -5.69646231 5.36908099 -3 5 C-0.76974753 2.6797907 -0.76974753 2.6797907 0 0 Z " fill="#9DDBFF" transform="translate(352,316)"/>
<path d="M0 0 C1.70840281 1.63412443 2.93453047 2.86906094 4 5 C6.58605332 5.4683265 6.58605332 5.4683265 9.5625 5.625 C10.57441406 5.69976562 11.58632813 5.77453125 12.62890625 5.8515625 C13.80259766 5.92503906 13.80259766 5.92503906 15 6 C15 6.66 15 7.32 15 8 C26.55 8 38.1 8 50 8 C50 8.33 50 8.66 50 9 C33.83 9 17.66 9 1 9 C1.66 8.67 2.32 8.34 3 8 C2.505 7.05125 2.01 6.1025 1.5 5.125 C0 2 0 2 0 0 Z " fill="#C4E9FF" transform="translate(427,305)"/>
<path d="M0 0 C1 2 1 2 0.4375 3.75 C-0.17547283 6.9024317 0.8627054 9.05641398 2 12 C0.29159719 10.36587557 -0.93453047 9.13093906 -2 7 C-19.16 7 -36.32 7 -54 7 C-54 5.68 -54 4.36 -54 3 C-53.01 3.33 -52.02 3.66 -51 4 C-49.43609934 4.10641595 -47.86818987 4.15856729 -46.30078125 4.17700195 C-45.34969482 4.18983719 -44.3986084 4.20267242 -43.41870117 4.21589661 C-42.39365479 4.22328354 -41.3686084 4.23067047 -40.3125 4.23828125 C-38.73142456 4.25038887 -38.73142456 4.25038887 -37.1184082 4.26274109 C-34.88917686 4.27657168 -32.65992443 4.28729842 -30.43066406 4.29516602 C-27.01326894 4.31243296 -23.5968278 4.35633501 -20.1796875 4.40039062 C-18.01563212 4.41051286 -15.85156852 4.41903042 -13.6875 4.42578125 C-12.14993042 4.45204338 -12.14993042 4.45204338 -10.58129883 4.47883606 C-9.15466919 4.47444771 -9.15466919 4.47444771 -7.69921875 4.4699707 C-6.86221436 4.47583694 -6.02520996 4.48170319 -5.1628418 4.48774719 C-2.80437188 4.17757177 -2.80437188 4.17757177 -1.20629883 1.97062683 C-0.80822021 1.32031998 -0.4101416 0.67001312 0 0 Z " fill="#A2DDFF" transform="translate(336,309)"/>
<path d="M0 0 C5.18626646 4.22584675 7.9232836 10.7698508 10 17 C7.69 17 5.38 17 3 17 C2.71125 15.783125 2.4225 14.56625 2.125 13.3125 C1.50885005 10.79914013 0.84363195 8.63788453 -0.1875 6.25 C-1.11228113 3.68906763 -0.93179527 2.51584723 0 0 Z " fill="#2739B1" transform="translate(333,196)"/>
<path d="M0 0 C1.32 0 2.64 0 4 0 C4 5.94 4 11.88 4 18 C2.68 18 1.36 18 0 18 C0 12.06 0 6.12 0 0 Z " fill="#79CEFF" transform="translate(367,225)"/>
<path d="M0 0 C1.32 0 2.64 0 4 0 C4 5.94 4 11.88 4 18 C2.68 18 1.36 18 0 18 C0 12.06 0 6.12 0 0 Z " fill="#71CBFF" transform="translate(331,225)"/>
<path d="M0 0 C1.70840281 1.63412443 2.93453047 2.86906094 4 5 C7.63 5 11.26 5 15 5 C14.67 5.99 14.34 6.98 14 8 C12.35 8 10.7 8 9 8 C9.03029297 8.64549805 9.06058594 9.29099609 9.09179688 9.95605469 C9.22882142 12.88732597 9.36442559 15.8186613 9.5 18.75 C9.54769531 19.76578125 9.59539062 20.7815625 9.64453125 21.828125 C9.68964844 22.8078125 9.73476563 23.7875 9.78125 24.796875 C9.8440918 26.14797363 9.8440918 26.14797363 9.90820312 27.52636719 C9.98823524 29.68297724 10 31.84190546 10 34 C9.01 33.67 8.02 33.34 7 33 C7.33 24.75 7.66 16.5 8 8 C6.35 8 4.7 8 3 8 C0 2.25 0 2.25 0 0 Z " fill="#A0DCFF" transform="translate(372,316)"/>
<path d="M0 0 C2.52370777 2.29427979 3.38262276 3.76524552 5 7 C19.85 7 34.7 7 50 7 C50 7.99 50 8.98 50 10 C34.82 10 19.64 10 4 10 C0 2 0 2 0 0 Z " fill="#A0DCFF" transform="translate(423,263)"/>
<path d="M0 0 C4.75 0.75 4.75 0.75 7 3 C7 4.65 7 6.3 7 8 C3.7 8.33 0.4 8.66 -3 9 C-3 3.375 -3 3.375 0 0 Z " fill="#7CCFFF" transform="translate(261,230)"/>
<path d="M0 0 C-0.33 1.65 -0.66 3.3 -1 5 C-6.28 5 -11.56 5 -17 5 C-16.34 3.68 -15.68 2.36 -15 1 C-13.95199219 1.01740234 -13.95199219 1.01740234 -12.8828125 1.03515625 C-11.97273438 1.04417969 -11.06265625 1.05320313 -10.125 1.0625 C-8.76761719 1.07990234 -8.76761719 1.07990234 -7.3828125 1.09765625 C-4.54785679 0.98146954 -2.920199 0 0 0 Z " fill="#2235B0" transform="translate(364,208)"/>
<path d="M0 0 C2.2477975 2.05233685 3.0022242 3.00667261 4 6 C4.33 6.66 4.66 7.32 5 8 C3.5625 10.625 3.5625 10.625 2 13 C0.68 12.34 -0.64 11.68 -2 11 C-2 11.66 -2 12.32 -2 13 C-5.96 13 -9.92 13 -14 13 C-14.33 11.68 -14.66 10.36 -15 9 C-14.01 9.495 -14.01 9.495 -13 10 C-13 10.66 -13 11.32 -13 12 C-9.7 12 -6.4 12 -3 12 C-1.19682779 8.03302114 -0.50797009 4.3177458 0 0 Z " fill="#A4DEFF" transform="translate(389,268)"/>
<path d="M0 0 C0.33 2.64 0.66 5.28 1 8 C0.13375 7.175 -0.7325 6.35 -1.625 5.5 C-4.00243173 3.53092713 -4.90440546 3.01560727 -8.0625 2.5 C-11.31264444 3.05321607 -13.32228886 4.10985096 -16 6 C-16 5.01 -16 4.02 -16 3 C-11.48267456 -1.20578575 -5.75838972 -0.27228813 0 0 Z " fill="#3D4DB9" transform="translate(388,189)"/>
<path d="M0 0 C0.99 0 1.98 0 3 0 C2.67 8.25 2.34 16.5 2 25 C3.65 25 5.3 25 7 25 C9.3125 28 9.3125 28 11 31 C10.67 31.66 10.34 32.32 10 33 C9.319375 31.5459375 9.319375 31.5459375 8.625 30.0625 C7.07592089 27.6597313 6.32899884 27.08199187 3.5078125 26.37890625 C0.99557506 26.1476096 -1.4776379 26.00962734 -4 26 C-4 25.67 -4 25.34 -4 25 C-2.35 25 -0.7 25 1 25 C0.67 16.75 0.34 8.5 0 0 Z " fill="#84D2FF" transform="translate(361,248)"/>
<path d="M0 0 C1.32 0 2.64 0 4 0 C4 4.29 4 8.58 4 13 C2.68 13 1.36 13 0 13 C0 8.71 0 4.42 0 0 Z " fill="#71CBFF" transform="translate(403,230)"/>
<path d="M0 0 C1.32 0 2.64 0 4 0 C4 4.29 4 8.58 4 13 C2.68 13 1.36 13 0 13 C0 8.71 0 4.42 0 0 Z " fill="#70CBFF" transform="translate(376,230)"/>
<path d="M0 0 C1.32 0 2.64 0 4 0 C4 4.29 4 8.58 4 13 C2.68 13 1.36 13 0 13 C0 8.71 0 4.42 0 0 Z " fill="#78CEFF" transform="translate(290,230)"/>
<path d="M0 0 C0.33 0.66 0.66 1.32 1 2 C0.4740625 3.11375 0.4740625 3.11375 -0.0625 4.25 C-1.28061636 7.82314131 -0.42621806 9.59292353 1 13 C-0.70840281 11.36587557 -1.93453047 10.13093906 -3 8 C-11.58 8 -20.16 8 -29 8 C-29 7.01 -29 6.02 -29 5 C-28.22809326 5.02618408 -27.45618652 5.05236816 -26.66088867 5.0793457 C-23.16996542 5.18315619 -19.6793663 5.24827755 -16.1875 5.3125 C-14.97255859 5.35439453 -13.75761719 5.39628906 -12.50585938 5.43945312 C-11.34248047 5.45556641 -10.17910156 5.47167969 -8.98046875 5.48828125 C-7.90692139 5.51446533 -6.83337402 5.54064941 -5.72729492 5.56762695 C-2.76251317 5.26619901 -2.76251317 5.26619901 -1.1262207 2.46948242 C-0.75456787 1.65455322 -0.38291504 0.83962402 0 0 Z " fill="#8BD5FF" transform="translate(392,297)"/>
<path d="M0 0 C0.66 0.99 1.32 1.98 2 3 C2.33 2.67 2.66 2.34 3 2 C6.72607794 1.51345429 10.28555488 1.39897462 14 2 C16.23462334 3.85139084 16.80971404 5.27934638 18 8 C17.67 8.66 17.34 9.32 17 10 C16.71125 9.175 16.4225 8.35 16.125 7.5 C14.28251012 4.80147612 14.28251012 4.80147612 11.6796875 4.5625 C6.54899215 4.26268517 6.54899215 4.26268517 2.1875 6.53125 C1.795625 7.0159375 1.40375 7.500625 1 8 C0.34 7.34 -0.32 6.68 -1 6 C-0.625 2.875 -0.625 2.875 0 0 Z " fill="#A9DFFF" transform="translate(372,281)"/>
<path d="M0 0 C0.99 0 1.98 0 3 0 C2.67 8.25 2.34 16.5 2 25 C3.65 25 5.3 25 7 25 C7.66 26.65 8.32 28.3 9 30 C8.41798828 29.27876953 8.41798828 29.27876953 7.82421875 28.54296875 C5.45911353 26.54250502 3.87308547 26.51123932 0.8125 26.3125 C-0.08855469 26.24675781 -0.98960937 26.18101562 -1.91796875 26.11328125 C-2.60503906 26.07589844 -3.29210937 26.03851563 -4 26 C-4 25.67 -4 25.34 -4 25 C-2.35 25 -0.7 25 1 25 C0.67 16.75 0.34 8.5 0 0 Z " fill="#84D2FF" transform="translate(398,248)"/>
<path d="M0 0 C2.6015625 -0.29296875 2.6015625 -0.29296875 5.625 -0.1875 C7.12933594 -0.14689453 7.12933594 -0.14689453 8.6640625 -0.10546875 C9.43492187 -0.07066406 10.20578125 -0.03585937 11 0 C12.89068242 2.91215849 14.6542729 5.79384541 16 9 C15.3125 12.0625 15.3125 12.0625 14 14 C13 12 13 12 12.5625 9.0625 C12.17930636 5.84075833 12.17930636 5.84075833 10 3 C7.57478506 2.41810734 7.57478506 2.41810734 4.875 2.3125 C3.96492188 2.24675781 3.05484375 2.18101562 2.1171875 2.11328125 C1.41851562 2.07589844 0.71984375 2.03851563 0 2 C-0.33 2.99 -0.66 3.98 -1 5 C-1.33 4.34 -1.66 3.68 -2 3 C-1.34 2.01 -0.68 1.02 0 0 Z " fill="#A1DCFF" transform="translate(394,315)"/>
<path d="M0 0 C-0.33 0.99 -0.66 1.98 -1 3 C-13.87 3 -26.74 3 -40 3 C-40 2.34 -40 1.68 -40 1 C-34.94630895 0.85687046 -29.89259795 0.71447432 -24.83886719 0.57275391 C-23.12011152 0.5244524 -21.40136145 0.47595148 -19.68261719 0.42724609 C-17.21030095 0.35722095 -14.7379654 0.28791603 -12.265625 0.21875 C-11.11540863 0.18593933 -11.11540863 0.18593933 -9.94195557 0.15246582 C-6.62581869 0.06031228 -3.31777923 0 0 0 Z " fill="#A8DFFF" transform="translate(481,313)"/>
<path d="M0 0 C1.65 0 3.3 0 5 0 C4.67 5.61 4.34 11.22 4 17 C3.01 16.67 2.02 16.34 1 16 C0.67 10.72 0.34 5.44 0 0 Z " fill="#6E7ACB" transform="translate(411,189)"/>
<path d="M0 0 C1.67542976 0.28604898 3.34385343 0.61781233 5 1 C5 2.65 5 4.3 5 6 C3.34385343 6.38218767 1.67542976 6.71395102 0 7 C-1 6 -1 6 -1.125 3.5 C-1 1 -1 1 0 0 Z " fill="#A3BAFC" transform="translate(159,198)"/>
<path d="M0 0 C2.125 0.375 2.125 0.375 4 1 C4.625 2.875 4.625 2.875 5 5 C4.34 5.66 3.68 6.32 3 7 C0.875 6.625 0.875 6.625 -1 6 C-1.625 4.125 -1.625 4.125 -2 2 C-1.34 1.34 -0.68 0.68 0 0 Z " fill="#F3FAFF" transform="translate(277,233)"/>
<path d="M0 0 C2.31 0 4.62 0 7 0 C6.01 0.66 5.02 1.32 4 2 C3.67 2.99 3.34 3.98 3 5 C4.32 5.33 5.64 5.66 7 6 C6 7 6 7 3.5625 7.1875 C1 7 1 7 -1 5 C-0.625 2.375 -0.625 2.375 0 0 Z " fill="#6ECAFF" transform="translate(315,236)"/>
<path d="M0 0 C2.125 0.375 2.125 0.375 4 1 C4 2.65 4 4.3 4 6 C2.35 6.33 0.7 6.66 -1 7 C-1.625 4.625 -1.625 4.625 -2 2 C-1.34 1.34 -0.68 0.68 0 0 Z " fill="#A7BDFD" transform="translate(78,198)"/>
<path d="M0 0 C2.62527189 -0.05382106 5.24944713 -0.09358313 7.875 -0.125 C8.62136719 -0.14175781 9.36773437 -0.15851563 10.13671875 -0.17578125 C12.09194461 -0.1933959 14.04742021 -0.10320189 16 0 C18 2 18 2 18 6 C17.01 5.67 16.02 5.34 15 5 C15 4.34 15 3.68 15 3 C12.16730334 1.58365167 9.52533562 1.6536995 6.375 1.4375 C5.18648438 1.35371094 3.99796875 1.26992187 2.7734375 1.18359375 C1.40058594 1.09271484 1.40058594 1.09271484 0 1 C0 0.67 0 0.34 0 0 Z " fill="#5865C3" transform="translate(445,189)"/>
<path d="M0 0 C2.1640625 -0.29296875 2.1640625 -0.29296875 4.625 -0.1875 C5.44226563 -0.16042969 6.25953125 -0.13335937 7.1015625 -0.10546875 C8.04128906 -0.05326172 8.04128906 -0.05326172 9 0 C8.67 0.99 8.34 1.98 8 3 C5.36 3 2.72 3 0 3 C-0.33 3.66 -0.66 4.32 -1 5 C-1.33 4.34 -1.66 3.68 -2 3 C-1.34 2.01 -0.68 1.02 0 0 Z " fill="#92D7FF" transform="translate(457,239)"/>
<path d="M0 0 C0 2.31 0 4.62 0 7 C-0.66 7 -1.32 7 -2 7 C-2 6.34 -2 5.68 -2 5 C-3.65 5 -5.3 5 -7 5 C-7 4.01 -7 3.02 -7 2 C-2.25 0 -2.25 0 0 0 Z " fill="#616EC6" transform="translate(459,197)"/>
<path d="M0 0 C4.62 0 9.24 0 14 0 C14 0.33 14 0.66 14 1 C10.04 1 6.08 1 2 1 C1.34 2.32 0.68 3.64 0 5 C-0.66 5 -1.32 5 -2 5 C-1.34 3.35 -0.68 1.7 0 0 Z " fill="#E8F6FF" transform="translate(428,272)"/>
<path d="M0 0 C2.31 0 4.62 0 7 0 C6.67 0.99 6.34 1.98 6 3 C4.35 3.33 2.7 3.66 1 4 C0.67 2.68 0.34 1.36 0 0 Z " fill="#4655BC" transform="translate(334,189)"/>
<path d="M0 0 C0 0.99 0 1.98 0 3 C-4.95 2.67 -9.9 2.34 -15 2 C-15 1.67 -15 1.34 -15 1 C-13.06263299 0.83179449 -11.12510094 0.66548905 -9.1875 0.5 C-7.56908203 0.36078125 -7.56908203 0.36078125 -5.91796875 0.21875 C-3 0 -3 0 0 0 Z " fill="#98D9FF" transform="translate(457,291)"/>
<path d="M0 0 C1.13643966 3.40931897 0.86747764 4.00335456 -0.4375 7.1875 C-0.86869141 8.26064453 -0.86869141 8.26064453 -1.30859375 9.35546875 C-1.53675781 9.89816406 -1.76492188 10.44085938 -2 11 C-3.22619644 7.32141069 -3.21527754 4.64583263 -2 1 C-1.34 0.67 -0.68 0.34 0 0 Z " fill="#C8EBFF" transform="translate(392,315)"/>
<path d="M0 0 C0.66 0.33 1.32 0.66 2 1 C2.75 3.9375 2.75 3.9375 3 7 C2.34 7.66 1.68 8.32 1 9 C0.34 9 -0.32 9 -1 9 C-0.67 6.03 -0.34 3.06 0 0 Z " fill="#CCECFF" transform="translate(408,301)"/>
<path d="M0 0 C0.66 0 1.32 0 2 0 C2 1.65 2 3.3 2 5 C0.35 5.33 -1.3 5.66 -3 6 C-2.01 4.02 -1.02 2.04 0 0 Z " fill="#2C3EB3" transform="translate(461,207)"/>
<path d="M0 0 C2.97 0.495 2.97 0.495 6 1 C6 1.66 6 2.32 6 3 C3.69 3 1.38 3 -1 3 C-0.67 2.01 -0.34 1.02 0 0 Z " fill="#C8EBFF" transform="translate(259,233)"/>
<path d="M0 0 C0.99 0.33 1.98 0.66 3 1 C0.83312509 3.27521866 -1.45620509 5.15794162 -4 7 C-4 4 -4 4 -2 1.8125 C-1.34 1.214375 -0.68 0.61625 0 0 Z " fill="#3444B6" transform="translate(334,193)"/>
<path d="M0 0 C1.98 0.495 1.98 0.495 4 1 C3.67 1.99 3.34 2.98 3 4 C1.68 4 0.36 4 -1 4 C-0.67 2.68 -0.34 1.36 0 0 Z " fill="#7CCFFF" transform="translate(291,224)"/>
</svg>
